<svg width="36" height="30" viewBox="0 0 36 30" fill="none" xmlns="http://www.w3.org/2000/svg" xmlns:xlink="http://www.w3.org/1999/xlink">
<path d="M2,11.678L31.48,11.678C33.082,11.678 34.381,12.977 34.381,14.579L34.381,14.579C34.381,16.181 33.082,17.48 31.48,17.48L2,17.48L2,11.678Z" fill="#FC8B56"/>
<path d="M5.784,12.232C4.69,10.988 2.794,10.866 1.55,11.961C0.306,13.055 0.185,14.951 1.279,16.195L5.784,12.232ZM11.08,27.337C12.175,28.581 14.07,28.702 15.314,27.608C16.558,26.513 16.68,24.618 15.585,23.374L11.08,27.337ZM1.279,16.195L11.08,27.337L15.585,23.374L5.784,12.232L1.279,16.195Z" fill="#FC8B56"/>
<path d="M5.784,1.179C4.69,-0.065 2.794,-0.186 1.55,0.908C0.306,2.002 0.185,3.898 1.279,5.142L5.784,1.179ZM11.08,16.284C12.175,17.528 14.07,17.649 15.314,16.555C16.558,15.461 16.68,13.565 15.585,12.321L11.08,16.284ZM1.279,5.142L11.08,16.284L15.585,12.321L5.784,1.179L1.279,5.142Z" fill="#FC8B56"/>
</svg>
