<svg width="36" height="26" viewBox="0 0 36 26" fill="none" xmlns="http://www.w3.org/2000/svg" xmlns:xlink="http://www.w3.org/1999/xlink">
<path d="M2,10.375L31.756,10.375C33.206,10.375 34.381,11.55 34.381,13L34.381,13C34.381,14.45 33.206,15.625 31.756,15.625L2,15.625L2,10.375Z" fill="#FC8B56"/>
<path d="M5.682,10.578C4.527,9.39 2.628,9.363 1.44,10.518C0.252,11.673 0.226,13.573 1.381,14.76L5.682,10.578ZM11.182,24.841C12.337,26.029 14.236,26.056 15.424,24.901C16.612,23.746 16.639,21.847 15.484,20.659L11.182,24.841ZM1.381,14.76L11.182,24.841L15.484,20.659L5.682,10.578L1.381,14.76Z" fill="#FC8B56"/>
<path d="M5.682,0.578C4.527,-0.61 2.628,-0.637 1.44,0.518C0.252,1.673 0.226,3.572 1.381,4.76L5.682,0.578ZM11.182,14.841C12.337,16.029 14.236,16.056 15.424,14.901C16.612,13.746 16.639,11.847 15.484,10.659L11.182,14.841ZM1.381,4.76L11.182,14.841L15.484,10.659L5.682,0.578L1.381,4.76Z" fill="#FC8B56"/>
</svg>
