<svg width="68" height="60" viewBox="0 0 68 60" fill="none" xmlns="http://www.w3.org/2000/svg" xmlns:xlink="http://www.w3.org/1999/xlink">
<g opacity="0.4" style="isolation:isolate">
<path d="M20.198,51.141C15.512,47.434 12.174,42.289 10.7,36.499C10.601,36.107 10.286,35.807 9.89,35.727C7.099,35.16 5.093,32.705 5.093,29.857C5.093,27.008 7.099,24.554 9.89,23.987C10.286,23.907 10.601,23.607 10.7,23.215C12.174,17.425 15.512,12.28 20.198,8.573C24.567,5.1 29.913,3.08 35.487,2.793C34.99,2.767 34.491,2.752 33.989,2.752C27.894,2.729 21.974,4.782 17.202,8.574C12.516,12.281 9.179,17.426 7.705,23.216C7.606,23.608 7.291,23.908 6.895,23.988C4.103,24.555 2.097,27.009 2.097,29.858C2.097,32.706 4.103,35.161 6.895,35.728C7.291,35.807 7.606,36.108 7.705,36.5C9.179,42.29 12.516,47.435 17.202,51.142C21.974,54.933 27.895,56.986 33.989,56.963C34.491,56.963 34.99,56.948 35.487,56.922C29.913,56.635 24.567,54.614 20.198,51.141L20.198,51.141Z" fill="#FC8E56"/>
</g>
<path d="M52.073,6.926C56.95,10.785 60.476,16.092 62.144,22.083C65.611,23.079 67.999,26.25 67.999,29.857C67.999,33.465 65.611,36.636 62.144,37.632C60.476,43.623 56.95,48.93 52.073,52.789C41.466,61.151 26.509,61.15 15.902,52.787C11.025,48.927 7.499,43.617 5.833,37.624C2.378,36.62 0.001,33.455 0.001,29.857C0.001,26.26 2.378,23.095 5.833,22.091C7.499,16.097 11.025,10.788 15.902,6.928C26.509,-1.435 41.466,-1.436 52.073,6.926ZM60.273,36.505C60.372,36.112 60.688,35.811 61.086,35.732C63.886,35.173 65.902,32.714 65.902,29.857C65.902,27.001 63.886,24.542 61.086,23.982C60.688,23.904 60.372,23.603 60.273,23.21C58.797,17.421 55.459,12.277 50.773,8.572C40.928,0.811 27.046,0.812 17.202,8.573C12.516,12.28 9.178,17.425 7.704,23.216C7.605,23.608 7.29,23.908 6.894,23.988C4.103,24.554 2.097,27.009 2.097,29.857C2.097,32.706 4.103,35.16 6.894,35.727C7.29,35.807 7.605,36.107 7.704,36.499C9.178,42.29 12.516,47.435 17.202,51.142C27.046,58.903 40.928,58.904 50.773,51.143C55.459,47.437 58.797,42.294 60.273,36.505Z" clip-rule="evenodd" fill-rule="evenodd" fill="#FC8E56"/>
<path d="M51.58,30.635C50.967,32.115 49.523,33.079 47.922,33.079C45.736,33.077 43.965,31.306 43.963,29.12C43.963,27.519 44.928,26.075 46.407,25.462C47.886,24.849 49.589,25.188 50.722,26.32C51.854,27.453 52.193,29.156 51.58,30.635ZM49.642,28.408C49.354,27.712 48.675,27.258 47.922,27.258C46.894,27.259 46.061,28.092 46.06,29.12C46.06,29.873 46.513,30.552 47.209,30.841C47.905,31.129 48.706,30.97 49.239,30.437C49.771,29.904 49.931,29.103 49.642,28.408Z" clip-rule="evenodd" fill-rule="evenodd" fill="#FEC368"/>
<path d="M23.736,29.675C23.123,31.154 21.679,32.119 20.078,32.119C17.892,32.117 16.121,30.345 16.119,28.16C16.119,26.559 17.084,25.115 18.563,24.502C20.042,23.889 21.745,24.228 22.878,25.36C24.01,26.493 24.349,28.196 23.736,29.675ZM21.94,28.16C21.94,27.131 21.106,26.298 20.078,26.298L20.078,26.298C19.05,26.299 18.217,27.132 18.216,28.16C18.216,29.188 19.05,30.022 20.078,30.022C21.106,30.022 21.94,29.188 21.94,28.16Z" clip-rule="evenodd" fill-rule="evenodd" fill="#FEC368"/>
<path d="M45.079,38.347C45.079,42.305 42.968,45.962 39.54,47.942C36.112,49.921 31.888,49.921 28.46,47.942C25.033,45.962 22.921,42.305 22.921,38.347C22.921,37.768 22.451,37.298 21.872,37.298C21.293,37.298 20.824,37.768 20.824,38.347C20.824,43.054 23.335,47.404 27.412,49.758C31.489,52.111 36.511,52.111 40.588,49.758C44.665,47.404 47.176,43.054 47.176,38.347C47.176,37.768 46.707,37.298 46.128,37.298C45.549,37.298 45.079,37.768 45.079,38.347Z" fill="#FEC368"/>
<path d="M23.115,15.241C23.393,15.242 23.66,15.131 23.856,14.934L29.243,9.547C29.652,9.138 29.652,8.474 29.243,8.064C28.833,7.655 28.17,7.655 27.76,8.064L22.373,13.451C22.073,13.751 21.984,14.202 22.146,14.594C22.308,14.986 22.691,15.241 23.115,15.241L23.115,15.241Z" fill="#FEC368"/>
<path d="M30.885,15.241C31.163,15.242 31.43,15.131 31.626,14.934L37.013,9.547C37.278,9.282 37.381,8.896 37.284,8.534C37.187,8.173 36.905,7.89 36.543,7.793C36.181,7.696 35.795,7.8 35.53,8.064L30.143,13.451C29.843,13.751 29.754,14.202 29.916,14.594C30.078,14.986 30.46,15.241 30.884,15.241L30.885,15.241Z" fill="#FEC368"/>
<path d="M38.654,15.241C38.932,15.242 39.199,15.131 39.396,14.934L44.783,9.547C45.192,9.138 45.192,8.474 44.783,8.064C44.373,7.655 43.709,7.655 43.3,8.064L37.913,13.451C37.613,13.751 37.523,14.202 37.686,14.594C37.848,14.986 38.23,15.241 38.654,15.241L38.654,15.241Z" fill="#FEC368"/>
</svg>
