<svg width="68" height="52" viewBox="0 0 68 52" fill="none" xmlns="http://www.w3.org/2000/svg" xmlns:xlink="http://www.w3.org/1999/xlink">
<g opacity="0.4" style="isolation:isolate">
<path d="M8.905,20.868L8.905,19.348C8.906,18.133 9.891,17.148 11.106,17.144L60.059,17.097C60.039,17.097 60.018,17.094 59.998,17.094L59.996,17.094L7.958,17.144C6.743,17.147 5.758,18.133 5.757,19.348L5.757,20.868C6.738,22.643 8.616,23.738 10.645,23.718C11.178,23.719 11.709,23.646 12.222,23.501C10.809,23.1 9.616,22.152 8.905,20.868Z" fill="#FC8E56"/>
</g>
<g opacity="0.4" style="isolation:isolate">
<path d="M20.465,20.678C20.303,20.364 19.979,20.167 19.626,20.167C19.272,20.168 18.949,20.365 18.787,20.68C18.585,21.07 18.338,21.437 18.053,21.772C19.113,23.02 20.673,23.733 22.311,23.717C22.843,23.718 23.373,23.645 23.885,23.501C22.401,23.079 21.161,22.055 20.465,20.678Z" fill="#FC8E56"/>
</g>
<g opacity="0.4" style="isolation:isolate">
<path d="M55.464,20.677C55.301,20.364 54.978,20.168 54.625,20.168C54.272,20.169 53.948,20.366 53.786,20.681C53.584,21.071 53.337,21.438 53.052,21.773C54.112,23.023 55.673,23.737 57.312,23.721C57.844,23.721 58.372,23.648 58.883,23.504C57.399,23.08 56.159,22.055 55.464,20.677Z" fill="#FC8E56"/>
</g>
<g opacity="0.4" style="isolation:isolate">
<path d="M43.798,20.679C43.636,20.365 43.312,20.168 42.959,20.168L42.957,20.168C42.605,20.169 42.281,20.366 42.118,20.68C41.916,21.07 41.669,21.438 41.384,21.773C42.445,23.022 44.005,23.735 45.644,23.719C46.176,23.72 46.706,23.647 47.218,23.503C45.734,23.08 44.493,22.057 43.798,20.679Z" fill="#FC8E56"/>
</g>
<g opacity="0.4" style="isolation:isolate">
<path d="M32.131,20.68C32.124,20.665 32.116,20.65 32.107,20.636C31.933,20.339 31.612,20.159 31.268,20.168C30.923,20.176 30.611,20.372 30.453,20.678C30.25,21.069 30.003,21.436 29.717,21.772C30.777,23.021 32.338,23.735 33.977,23.719C34.509,23.719 35.039,23.647 35.551,23.502C34.067,23.08 32.827,22.057 32.131,20.68Z" fill="#FC8E56"/>
</g>
<g opacity="0.4" style="isolation:isolate">
<path d="M48.792,25.608C50.313,25.61 51.798,25.15 53.051,24.287C52.459,23.88 51.929,23.39 51.477,22.832C50.399,24.165 48.895,25.086 47.217,25.441C47.735,25.552 48.263,25.608 48.792,25.608L48.792,25.608Z" fill="#FC8E56"/>
</g>
<g opacity="0.4" style="isolation:isolate">
<path d="M37.125,25.608C38.645,25.609 40.131,25.148 41.383,24.285C40.791,23.878 40.261,23.387 39.809,22.829C38.731,24.162 37.228,25.084 35.55,25.44C36.068,25.55 36.595,25.607 37.125,25.608L37.125,25.608Z" fill="#FC8E56"/>
</g>
<g opacity="0.4" style="isolation:isolate">
<path d="M60.46,25.609C61.046,25.609 61.631,25.541 62.202,25.406L62.202,23.804C61.252,24.619 60.112,25.183 58.888,25.442C59.405,25.553 59.932,25.609 60.46,25.609L60.46,25.609Z" fill="#FC8E56"/>
</g>
<g opacity="0.4" style="isolation:isolate">
<path d="M13.793,25.608C15.314,25.609 16.8,25.148 18.052,24.285C17.46,23.878 16.93,23.387 16.478,22.829C15.399,24.163 13.896,25.085 12.218,25.44C12.736,25.551 13.263,25.607 13.793,25.608Z" fill="#FC8E56"/>
</g>
<g opacity="0.4" style="isolation:isolate">
<path d="M5.757,23.804L5.757,42.126L8.905,42.126L8.905,25.404C7.743,25.13 6.663,24.581 5.757,23.804L5.757,23.804Z" fill="#FC8E56"/>
</g>
<g opacity="0.4" style="isolation:isolate">
<path d="M25.459,25.606C26.979,25.608 28.464,25.148 29.717,24.286C29.125,23.879 28.595,23.389 28.143,22.831C27.065,24.163 25.562,25.084 23.885,25.439C24.402,25.549 24.93,25.606 25.459,25.606Z" fill="#FC8E56"/>
</g>
<path d="M59.765,36.331C59.765,37.927 58.471,39.22 56.876,39.22C55.281,39.218 53.989,37.926 53.987,36.332C53.987,34.736 55.28,33.442 56.876,33.442C58.471,33.442 59.765,34.735 59.765,36.331ZM57.876,36.331C57.876,35.779 57.428,35.331 56.876,35.331C56.324,35.332 55.877,35.779 55.876,36.332C55.876,36.884 56.324,37.331 56.876,37.331C57.429,37.331 57.876,36.884 57.876,36.331Z" clip-rule="evenodd" fill-rule="evenodd" fill="#FEC368"/>
<path d="M13.797,36.331C13.797,37.927 12.503,39.22 10.908,39.22C9.313,39.218 8.021,37.926 8.019,36.332C8.019,34.736 9.312,33.442 10.908,33.442C12.503,33.442 13.797,34.735 13.797,36.331ZM11.908,36.331C11.908,35.779 11.461,35.331 10.908,35.331C10.356,35.332 9.909,35.779 9.908,36.332C9.908,36.884 10.356,37.331 10.908,37.331C11.461,37.331 11.908,36.884 11.908,36.331Z" clip-rule="evenodd" fill-rule="evenodd" fill="#FEC368"/>
<path d="M25.289,36.331C25.289,37.927 23.995,39.22 22.4,39.22C20.805,39.218 19.512,37.926 19.511,36.332C19.51,34.736 20.804,33.442 22.4,33.442C23.995,33.442 25.289,34.735 25.289,36.331ZM23.4,36.331C23.4,35.779 22.952,35.331 22.4,35.331C21.848,35.332 21.4,35.779 21.4,36.332C21.4,36.884 21.848,37.331 22.4,37.331C22.953,37.331 23.4,36.884 23.4,36.331Z" clip-rule="evenodd" fill-rule="evenodd" fill="#FEC368"/>
<path d="M31.002,36.331C31.002,34.735 32.296,33.442 33.892,33.442C35.487,33.444 36.779,34.737 36.78,36.332C36.78,37.927 35.487,39.22 33.892,39.22C32.296,39.22 31.002,37.927 31.002,36.331ZM32.891,36.331C32.891,36.884 33.34,37.331 33.892,37.331C34.444,37.331 34.891,36.883 34.892,36.332C34.892,35.779 34.444,35.331 33.892,35.331C33.339,35.331 32.891,35.779 32.891,36.331Z" clip-rule="evenodd" fill-rule="evenodd" fill="#FEC368"/>
<path d="M48.272,36.331C48.273,37.927 46.979,39.22 45.384,39.22C43.789,39.218 42.496,37.926 42.495,36.332C42.495,34.736 43.788,33.442 45.384,33.442C46.979,33.442 48.272,34.735 48.272,36.331ZM46.384,36.331C46.384,35.779 45.936,35.331 45.384,35.331C44.832,35.332 44.385,35.779 44.384,36.332C44.384,36.884 44.832,37.331 45.384,37.331C45.937,37.331 46.384,36.884 46.384,36.331Z" clip-rule="evenodd" fill-rule="evenodd" fill="#FEC368"/>
<path d="M34.673,0.471L37.314,4.356L37.314,4.356C38.07,5.469 38.237,6.882 37.762,8.142C37.286,9.402 36.227,10.351 34.924,10.688L34.924,16.147C34.924,16.668 34.501,17.091 33.979,17.091C33.457,17.091 33.035,16.668 33.035,16.147L33.035,10.729C31.686,10.443 30.569,9.504 30.054,8.226C29.54,6.947 29.696,5.496 30.471,4.356L33.111,0.471C33.287,0.212 33.579,0.058 33.892,0.058C34.205,0.058 34.497,0.212 34.673,0.471ZM32.459,8.413C33.353,9.152 34.662,9.09 35.481,8.271C36.243,7.508 36.356,6.31 35.751,5.418L33.892,2.682L32.032,5.418C31.381,6.377 31.566,7.674 32.459,8.413Z" clip-rule="evenodd" fill-rule="evenodd" fill="#FEC368"/>
<path d="M48.284,0.471L50.924,4.356L50.924,4.356C51.681,5.469 51.848,6.882 51.373,8.142C50.897,9.402 49.838,10.351 48.534,10.688L48.534,16.147C48.534,16.668 48.112,17.091 47.59,17.091C47.068,17.091 46.645,16.668 46.645,16.147L46.645,10.729C45.298,10.443 44.18,9.505 43.665,8.226C43.151,6.947 43.307,5.496 44.081,4.356L46.722,0.471C46.898,0.213 47.19,0.058 47.503,0.058C47.816,0.058 48.108,0.213 48.284,0.471ZM46.07,8.413C46.963,9.152 48.272,9.091 49.093,8.271C49.855,7.508 49.968,6.31 49.362,5.418L47.503,2.682L45.644,5.418C44.992,6.377 45.177,7.674 46.07,8.413Z" clip-rule="evenodd" fill-rule="evenodd" fill="#FEC368"/>
<path d="M21.312,16.147C21.312,16.668 20.889,17.091 20.368,17.091C19.846,17.091 19.423,16.668 19.423,16.147L19.423,10.729C18.075,10.443 16.958,9.504 16.443,8.226C15.928,6.947 16.084,5.496 16.859,4.356L19.499,0.471C19.675,0.212 19.968,0.058 20.28,0.058C20.593,0.058 20.886,0.212 21.062,0.471L23.702,4.356C24.458,5.469 24.626,6.882 24.15,8.142C23.674,9.402 22.616,10.351 21.312,10.688L21.312,16.147ZM20.28,2.682L18.422,5.418C17.785,6.355 17.944,7.618 18.794,8.368C19.643,9.117 20.917,9.117 21.767,8.368C22.617,7.618 22.776,6.355 22.14,5.418L20.28,2.682Z" clip-rule="evenodd" fill-rule="evenodd" fill="#FEC368"/>
<path d="M2.868,47.904L4.933,47.904C5.386,50.163 7.369,51.79 9.673,51.793L58.284,51.793C60.588,51.79 62.571,50.163 63.024,47.904L65.09,47.904C66.677,47.892 67.958,46.602 67.958,45.015C67.958,43.428 66.677,42.138 65.09,42.126L64.091,42.126L64.091,19.298C64.091,17.038 62.258,15.206 59.998,15.206L59.994,15.206L7.957,15.256C5.699,15.261 3.871,17.091 3.868,19.349L3.868,42.126L2.868,42.126C1.281,42.137 0,43.427 0,45.014C0,46.602 1.281,47.892 2.868,47.904L2.868,47.904ZM58.284,49.904L9.673,49.904C8.413,49.902 7.292,49.098 6.887,47.904L61.07,47.904C60.665,49.098 59.546,49.902 58.284,49.904ZM59.996,17.094L7.958,17.144C6.743,17.148 5.759,18.133 5.758,19.349L5.758,20.868C6.774,22.664 8.692,23.757 10.755,23.718C12.817,23.679 14.692,22.513 15.639,20.681C15.801,20.366 16.125,20.168 16.478,20.168C16.832,20.168 17.156,20.365 17.318,20.679C18.284,22.546 20.21,23.717 22.312,23.717C24.414,23.717 26.34,22.546 27.305,20.679C27.464,20.373 27.776,20.178 28.121,20.168C28.465,20.16 28.786,20.339 28.96,20.637C28.968,20.651 28.977,20.666 28.984,20.681C29.95,22.547 31.876,23.719 33.978,23.719C36.08,23.719 38.005,22.547 38.971,20.681C39.134,20.366 39.457,20.17 39.811,20.169L39.811,20.169C40.165,20.169 40.489,20.366 40.65,20.68C41.616,22.547 43.542,23.719 45.644,23.72C47.746,23.72 49.672,22.548 50.638,20.681C50.8,20.367 51.124,20.17 51.477,20.169C51.83,20.168 52.153,20.365 52.316,20.678C53.263,22.512 55.139,23.679 57.203,23.719C59.266,23.759 61.185,22.663 62.202,20.866L62.202,19.298C62.202,18.08 61.215,17.094 59.998,17.094L59.996,17.094ZM5.757,23.804C7.118,24.971 8.852,25.611 10.645,25.608C12.909,25.612 15.054,24.591 16.477,22.829C17.904,24.586 20.047,25.606 22.31,25.606C24.573,25.606 26.716,24.587 28.143,22.831C29.567,24.591 31.712,25.613 33.977,25.608C36.241,25.613 38.385,24.591 39.809,22.83C41.236,24.587 43.379,25.608 45.643,25.608C47.906,25.608 50.049,24.589 51.477,22.832C52.756,24.406 54.615,25.396 56.635,25.579C58.653,25.761 60.661,25.121 62.201,23.804L62.201,42.126L5.757,42.126L5.757,23.804ZM65.09,44.014L2.868,44.014C2.321,44.021 1.88,44.467 1.88,45.014C1.88,45.562 2.321,46.008 2.868,46.015L65.09,46.015C65.638,46.008 66.077,45.562 66.077,45.014C66.077,44.467 65.638,44.021 65.09,44.014Z" clip-rule="evenodd" fill-rule="evenodd" fill="#FC8E56"/>
</svg>
