<svg width="54" height="84" viewBox="0 0 54 84" fill="none" xmlns="http://www.w3.org/2000/svg" xmlns:xlink="http://www.w3.org/1999/xlink">
<g opacity="0.2" style="isolation:isolate">
<path d="M33.016,28.08C34.906,25.644 37.819,24.223 40.902,24.232L37.527,24.232C32.171,24.235 27.765,28.452 27.527,33.802L30.902,33.802C30.99,31.721 31.73,29.719 33.016,28.08L33.016,28.08Z" fill="#FC8E56"/>
</g>
<g opacity="0.2" style="isolation:isolate">
<path d="M41.62,78.357L36.096,56.26L36.588,56.26C37.24,56.26 37.769,55.731 37.769,55.079C37.769,54.426 37.24,53.898 36.588,53.898L35.505,53.898L35.091,52.241L37.593,52.241C38.245,52.241 38.774,51.712 38.774,51.06C38.774,50.407 38.245,49.878 37.593,49.878L34.5,49.878L32.077,40.183L34.378,40.183C35.03,40.183 35.559,39.654 35.559,39.002C35.559,38.35 35.03,37.821 34.378,37.821L31.486,37.821L31.196,36.662C31.155,36.496 31.12,36.33 31.087,36.164L27.712,36.164C27.745,36.33 27.779,36.496 27.821,36.662L28.111,37.821L31.003,37.821C31.655,37.821 32.184,38.35 32.184,39.002C32.184,39.654 31.655,40.183 31.003,40.183L28.702,40.183L31.125,49.878L34.218,49.878C34.871,49.878 35.399,50.407 35.399,51.06C35.399,51.712 34.871,52.241 34.218,52.241L31.716,52.241L32.13,53.898L33.213,53.898C33.866,53.898 34.394,54.426 34.394,55.079C34.394,55.731 33.866,56.26 33.213,56.26L32.721,56.26L38.245,78.357C38.316,78.637 38.445,78.899 38.625,79.125L38.743,79.273C39.138,79.768 39.744,80.047 40.376,80.027C41.009,80.007 41.595,79.69 41.958,79.171C41.971,79.153 41.981,79.134 41.993,79.116C41.817,78.892 41.69,78.634 41.62,78.357L41.62,78.357Z" fill="#FC8E56"/>
</g>
<g opacity="0.2" style="isolation:isolate">
<path d="M34.419,36.164L37.794,36.164C38.446,36.164 38.975,35.635 38.975,34.983C38.975,34.33 38.446,33.802 37.794,33.802L34.419,33.802C35.071,33.802 35.6,34.33 35.6,34.983C35.6,35.635 35.071,36.164 34.419,36.164L34.419,36.164Z" fill="#FC8E56"/>
</g>
<g opacity="0.3" style="isolation:isolate">
<path d="M12.613,58.335L16.217,56.168C16.776,55.832 16.957,55.106 16.62,54.547C16.284,53.987 15.558,53.807 14.999,54.143L13.413,55.097C13.434,55.532 13.215,55.943 12.842,56.168L8.989,58.485L9.405,58.9L10.999,57.941C11.554,57.608 12.274,57.783 12.613,58.335L12.613,58.335Z" fill="#FEC368"/>
</g>
<g opacity="0.3" style="isolation:isolate">
<path d="M10.341,52.674C10.595,50.537 11.826,48.64 13.673,47.537L16.169,46.036C16.763,45.68 17.407,45.413 18.079,45.246C16.283,44.792 14.379,45.077 12.794,46.036L10.298,47.537C7.207,49.398 6.041,53.307 7.607,56.558L10.422,54.866C10.28,54.144 10.253,53.404 10.341,52.674L10.341,52.674Z" fill="#FEC368"/>
</g>
<g opacity="0.3" style="isolation:isolate">
<path d="M33.075,79.157L23.06,69.161C23.58,68.801 23.725,68.095 23.388,67.56C23.05,67.024 22.351,66.85 21.802,67.164L21.338,67.442L20.922,67.027L22.137,66.297C22.696,65.961 22.877,65.235 22.541,64.676C22.204,64.117 21.479,63.936 20.919,64.272L19.333,65.226C19.355,65.661 19.135,66.072 18.762,66.297L17.547,67.027L17.963,67.442L18.427,67.163C18.976,66.849 19.676,67.024 20.013,67.559C20.35,68.095 20.206,68.801 19.685,69.161L31.161,80.615C31.278,80.731 31.418,80.821 31.573,80.878L31.703,80.927C32.042,81.052 32.42,81.011 32.723,80.815C33.027,80.619 33.22,80.291 33.245,79.931C33.256,79.778 33.236,79.625 33.186,79.48L33.075,79.157Z" fill="#FEC368"/>
</g>
<g opacity="0.3" style="isolation:isolate">
<path d="M14.503,60.62L15.592,59.966C15.953,59.748 16.172,59.355 16.164,58.933C16.157,58.511 15.925,58.125 15.555,57.92C15.186,57.716 14.736,57.723 14.374,57.941L12.788,58.895C12.809,59.33 12.59,59.741 12.217,59.966L11.128,60.62L15.823,65.306L17.544,64.272C17.684,64.187 17.84,64.133 18.003,64.113L14.503,60.62Z" fill="#FEC368"/>
</g>
<path d="M36.898,80.749L36.78,80.601C36.387,80.111 36.104,79.541 35.952,78.931L25.529,37.236C24.605,33.541 25.435,29.627 27.779,26.626C30.123,23.624 33.719,21.87 37.527,21.87L41.518,21.87C45.252,21.87 48.787,23.558 51.135,26.462C53.483,29.366 54.392,33.175 53.61,36.827L44.586,78.935C44.164,80.899 42.459,82.323 40.451,82.388C40.403,82.389 40.355,82.39 40.307,82.39C38.979,82.394 37.723,81.79 36.898,80.749ZM37.527,24.232C34.444,24.223 31.531,25.644 29.641,28.08C28.355,29.719 27.615,31.72 27.527,33.802L34.419,33.802C35.071,33.802 35.6,34.33 35.6,34.983C35.6,35.635 35.071,36.164 34.419,36.164L27.712,36.164C27.745,36.33 27.78,36.496 27.821,36.662L28.111,37.821L31.003,37.821C31.655,37.821 32.184,38.35 32.184,39.002C32.184,39.654 31.655,40.183 31.003,40.183L28.702,40.183L31.125,49.878L34.218,49.878C34.87,49.878 35.399,50.407 35.399,51.06C35.399,51.712 34.87,52.241 34.218,52.241L31.716,52.241L32.13,53.898L33.213,53.898C33.865,53.898 34.394,54.426 34.394,55.079C34.394,55.731 33.865,56.26 33.213,56.26L32.721,56.26L38.246,78.357C38.317,78.637 38.446,78.899 38.626,79.125L38.744,79.273C39.139,79.767 39.744,80.047 40.377,80.027C41.01,80.007 41.596,79.689 41.959,79.171C42.113,78.951 42.222,78.702 42.278,78.439L44.447,68.317L43.698,68.317C43.046,68.317 42.517,67.789 42.517,67.136C42.517,66.484 43.046,65.955 43.698,65.955L44.953,65.955L45.307,64.298L43.095,64.298C42.442,64.298 41.913,63.769 41.913,63.117C41.913,62.465 42.442,61.936 43.095,61.936L45.813,61.936L49.154,46.347L46.649,46.347C45.996,46.347 45.467,45.818 45.467,45.165C45.467,44.513 45.996,43.984 46.649,43.984L49.661,43.984L50.015,42.327L47.252,42.327C46.599,42.327 46.07,41.798 46.07,41.146C46.07,40.494 46.599,39.965 47.252,39.965L50.521,39.965L51.3,36.332C51.933,33.378 51.197,30.296 49.297,27.947C47.398,25.598 44.539,24.233 41.518,24.232L37.527,24.232Z" clip-rule="evenodd" fill-rule="evenodd" fill="#FC8E56"/>
<path d="M34.561,6.761C33.975,4.913 34.47,2.891 35.845,1.523C37.877,-0.505 41.168,-0.505 43.2,1.523C44.574,2.892 45.069,4.913 44.483,6.761L40.661,20.695C40.52,21.208 40.054,21.564 39.522,21.564C38.99,21.564 38.524,21.208 38.383,20.695L34.561,6.761ZM42.21,6.114C42.215,6.098 42.219,6.082 42.224,6.066C42.551,5.054 42.283,3.944 41.529,3.194C40.603,2.268 39.163,2.096 38.045,2.778C36.926,3.46 36.42,4.818 36.819,6.066C36.824,6.082 36.829,6.098 36.834,6.114L39.521,15.917L42.21,6.114Z" clip-rule="evenodd" fill-rule="evenodd" fill="#FC8E56"/>
<path d="M46.708,11.627C47.353,10.388 48.635,9.613 50.031,9.616C51.758,9.616 53.261,10.794 53.674,12.471C54.087,14.147 53.302,15.889 51.773,16.69L43.75,21.26C43.287,21.524 42.706,21.445 42.33,21.069C41.954,20.693 41.875,20.112 42.139,19.649L46.708,11.627ZM50.623,14.626C50.637,14.618 50.652,14.61 50.667,14.602C51.201,14.327 51.497,13.741 51.403,13.148C51.308,12.555 50.843,12.091 50.25,11.996C49.657,11.901 49.071,12.198 48.796,12.732C48.79,12.745 48.783,12.757 48.775,12.77C48.774,12.772 48.773,12.774 48.772,12.776L46.323,17.075L50.623,14.626Z" clip-rule="evenodd" fill-rule="evenodd" fill="#FC8E56"/>
<path d="M28.342,7.646C29.93,7.412 31.491,8.214 32.225,9.641C32.234,9.658 32.242,9.675 32.25,9.692L36.83,19.744C37.057,20.244 36.91,20.834 36.475,21.169C36.04,21.504 35.432,21.494 35.007,21.147L27.052,14.629C25.653,13.843 24.908,12.254 25.2,10.676C25.492,9.098 26.755,7.88 28.342,7.646ZM28.254,12.592C28.328,12.631 28.398,12.676 28.462,12.729L32.573,16.099L30.113,10.701C29.831,10.174 29.243,9.887 28.654,9.988C28.065,10.089 27.607,10.555 27.516,11.146C27.425,11.737 27.722,12.319 28.254,12.592Z" clip-rule="evenodd" fill-rule="evenodd" fill="#FC8E56"/>
<path d="M24.334,51.749L21.968,53.172C21.408,53.508 21.228,54.234 21.564,54.793C21.9,55.352 22.626,55.533 23.185,55.197L25.551,53.774C26.11,53.438 26.291,52.712 25.955,52.153C25.619,51.594 24.893,51.413 24.334,51.749L24.334,51.749Z" fill="#0635C9"/>
<path d="M25.09,54.716L23.102,55.912C22.543,56.248 22.362,56.974 22.698,57.533C23.034,58.093 23.76,58.273 24.319,57.937L26.308,56.741C26.868,56.405 27.048,55.679 26.712,55.12C26.376,54.561 25.65,54.38 25.091,54.716L25.09,54.716Z" fill="#0635C9"/>
<path d="M30.882,83.142L30.752,83.094C30.278,82.919 29.849,82.644 29.492,82.287L7.295,60.132C5.259,58.1 4.272,55.242 4.621,52.386C4.97,49.53 6.615,46.995 9.081,45.512L9.558,45.225C9.394,45.171 9.244,45.081 9.119,44.962L1.494,37.689C0.169,36.513 -0.254,34.621 0.443,32.993C1.141,31.364 2.802,30.365 4.568,30.513C6.333,30.66 7.806,31.921 8.223,33.643L11.071,43.787C11.117,43.955 11.126,44.13 11.096,44.301L11.577,44.012C11.698,43.939 11.822,43.871 11.946,43.804L11.922,43.799L11.922,43.799L11.922,43.799C11.905,43.797 11.888,43.794 11.871,43.79C11.354,43.661 10.988,43.203 10.975,42.671L10.816,35.942C10.741,34.63 11.514,33.417 12.735,32.929C13.955,32.442 15.351,32.79 16.2,33.792C17.05,34.795 17.163,36.229 16.482,37.353L13.186,43.222C13.183,43.227 13.179,43.232 13.176,43.238C13.173,43.242 13.17,43.247 13.167,43.251C15.526,42.383 18.135,42.502 20.406,43.582C22.676,44.662 24.415,46.611 25.23,48.989L35.421,78.714C35.788,79.785 35.616,80.967 34.959,81.89C34.302,82.812 33.24,83.361 32.108,83.364C31.689,83.364 31.274,83.288 30.882,83.142ZM13.867,35.073C13.741,35.073 13.618,35.108 13.51,35.173C13.287,35.306 13.157,35.554 13.175,35.813L13.175,35.819C13.176,35.834 13.177,35.849 13.177,35.864L13.235,38.309L14.433,36.176L14.442,36.161C14.447,36.151 14.453,36.142 14.458,36.133C14.596,35.912 14.597,35.633 14.463,35.41C14.368,35.252 14.214,35.138 14.035,35.094C13.98,35.08 13.924,35.073 13.867,35.073ZM3.108,35.963C3.096,35.952 3.083,35.941 3.071,35.93C2.461,35.398 2.296,34.517 2.671,33.8C3.045,33.083 3.863,32.716 4.648,32.913C5.285,33.07 5.781,33.571 5.93,34.211C5.933,34.228 5.938,34.243 5.942,34.259L7.632,40.279L3.108,35.963ZM10.298,47.537C8.451,48.64 7.22,50.537 6.966,52.674C6.801,54.003 7.024,55.352 7.608,56.558L11.624,54.142C12.183,53.806 12.909,53.987 13.245,54.546C13.582,55.105 13.401,55.831 12.842,56.167L8.988,58.484L9.404,58.9L10.999,57.941C11.558,57.604 12.284,57.785 12.62,58.344C12.957,58.903 12.776,59.629 12.217,59.966L11.128,60.62L15.823,65.306L17.544,64.273C18.103,63.937 18.829,64.118 19.165,64.677C19.501,65.236 19.321,65.962 18.761,66.298L17.546,67.028L17.963,67.444L18.426,67.165C18.976,66.851 19.675,67.025 20.012,67.561C20.35,68.096 20.205,68.802 19.684,69.162L31.161,80.616C31.277,80.733 31.417,80.823 31.572,80.88L31.703,80.928C32.041,81.054 32.419,81.012 32.723,80.816C33.026,80.62 33.219,80.293 33.244,79.933C33.255,79.78 33.235,79.626 33.185,79.481L30.864,72.71L30.734,72.788C30.372,73.005 29.922,73.013 29.553,72.808C29.184,72.604 28.952,72.218 28.944,71.796C28.937,71.374 29.155,70.98 29.517,70.763L30.08,70.424L29.891,69.872L28.846,70.5C28.484,70.718 28.034,70.726 27.664,70.521C27.295,70.317 27.063,69.931 27.056,69.509C27.048,69.087 27.267,68.693 27.628,68.475L29.107,67.586L25.547,57.199L24.318,57.938C23.759,58.274 23.033,58.093 22.697,57.534C22.361,56.975 22.542,56.249 23.101,55.913L24.763,54.913L24.574,54.362L23.184,55.197C22.822,55.415 22.372,55.423 22.003,55.218C21.634,55.014 21.402,54.628 21.394,54.206C21.387,53.784 21.605,53.39 21.967,53.172L23.79,52.075L22.995,49.755C22.311,47.761 20.763,46.182 18.782,45.46C16.802,44.738 14.601,44.95 12.794,46.036L10.298,47.537Z" clip-rule="evenodd" fill-rule="evenodd" fill="#FEC368"/>
</svg>
