<svg width="32" height="32" viewBox="0 0 32 32" fill="none" xmlns="http://www.w3.org/2000/svg" xmlns:xlink="http://www.w3.org/1999/xlink">
<path d="M0,15.863C0,7.116 7.116,0 15.863,0C24.61,0 31.726,7.116 31.726,15.863C31.726,24.61 24.61,31.726 15.863,31.726C7.116,31.726 0,24.61 0,15.863ZM3.375,15.863C3.375,22.749 8.977,28.35 15.863,28.35C22.748,28.35 28.351,22.749 28.351,15.863C28.351,8.977 22.748,3.375 15.863,3.375C8.977,3.375 3.375,8.977 3.375,15.863Z" clip-rule="evenodd" fill-rule="evenodd" fill="#FC8B56"/>
<path d="M24.13,15.373L17.001,15.373L17.001,6.802C17.001,6.08 16.416,5.496 15.695,5.496C14.974,5.496 14.389,6.08 14.389,6.802L14.389,16.679C14.389,17.4 14.974,17.985 15.695,17.985L24.13,17.985C24.851,17.985 25.436,17.4 25.436,16.679C25.436,15.958 24.851,15.373 24.13,15.373Z" fill="#FC8B56"/>
</svg>
