<svg width="384" height="402" viewBox="0 0 384 402" fill="none" xmlns="http://www.w3.org/2000/svg" xmlns:xlink="http://www.w3.org/1999/xlink">
<mask id="mask_0_1_36" style="mask-type:alpha" maskUnits="userSpaceOnUse" x="0" y="0" width="191.904388" height="198.352936">
<rect  x="0" y="0" width="383.809" height="396.706" rx="129.034" fill="#FFF4E4"/>
</mask>
<mask id="mask_0_1_57" style="mask-type:alpha" maskUnits="userSpaceOnUse" x="100.820557" y="5.509796" width="90.621513" height="72.804863">
<path d="M100.821,57.966C100.821,78.891 114.842,85.25 133.181,88.621L133.181,141.712C133.181,145.612 129.574,148.765 133.153,148.765C133.153,148.765 168.92,141.772 185.825,141.772C203.447,141.772 248.343,151.12 248.343,151.12C250.389,148.765 249.709,145.612 249.709,141.712L249.709,88.621C268.042,85.243 282.064,78.891 282.064,57.966C282.064,34.628 264.644,26.668 243.223,26.668L228.574,26.668C220.372,13.896 206.797,5.51 191.442,5.51C176.087,5.51 162.506,13.896 154.311,26.668L139.655,26.668C118.234,26.675 100.821,34.628 100.821,57.966Z" fill="#FFE5BE"/>
</mask>
<path d="M288.675,321.269C275.588,295.855 191.445,279.907 191.445,279.907C191.445,279.907 107.301,295.855 94.214,321.269C84.541,356.538 76.449,401.35 76.449,401.35L306.441,401.35C306.441,401.35 300.977,353.301 288.675,321.269Z" clip-rule="evenodd" fill-rule="evenodd" fill="#FFD28D"/>
<path d="M191.445,279.907C191.445,279.907 275.588,295.855 288.675,321.269C300.976,353.301 306.44,401.35 306.44,401.35L191.445,401.35L191.445,279.907Z" clip-rule="evenodd" fill-rule="evenodd" fill="#FEC368"/>
<path d="M168.946,308.329L213.944,308.329L213.944,228.228L168.946,228.228L168.946,308.329Z" clip-rule="evenodd" fill-rule="evenodd" fill="#FFD28D"/>
<path d="M191.445,308.329L213.944,308.329L213.944,228.228L191.445,228.228L191.445,308.329Z" clip-rule="evenodd" fill-rule="evenodd" fill="#FEC368"/>
<path d="M191.445,282.49C181.709,279.911 171.948,273.749 168.946,264.734L168.946,228.228L191.445,228.228L191.445,282.49Z" clip-rule="evenodd" fill-rule="evenodd" fill="#FFD28D"/>
<path d="M201.318,285.074C198.222,285.074 194.836,284.6 191.445,283.681L191.445,228.228L213.944,228.228L213.944,282.874C209.88,284.297 205.66,285.074 201.318,285.074Z" clip-rule="evenodd" fill-rule="evenodd" fill="#FEC368"/>
<path d="M251.442,176.993C251.442,127.294 225.14,99.033 192.694,99.033C160.252,99.033 133.947,127.294 133.947,176.993C133.947,243.843 160.252,266.987 192.694,266.987C225.14,266.987 251.442,241.057 251.442,176.993Z" clip-rule="evenodd" fill-rule="evenodd" fill="#FFD28D"/>
<path d="M243.13,212.636C232.236,211.483 224.881,199.596 226.727,186.103C228.547,172.599 238.866,162.572 249.764,163.72C260.653,164.871 267.999,176.749 266.159,190.256C264.33,203.76 254.025,213.778 243.13,212.636Z" clip-rule="evenodd" fill-rule="evenodd" fill="#FFD28D"/>
<path d="M119.229,190.256C117.392,176.749 124.734,164.871 135.617,163.72C146.519,162.572 156.838,172.599 158.664,186.103C160.503,199.596 153.144,211.483 142.255,212.636C131.362,213.778 121.057,203.76 119.229,190.256Z" clip-rule="evenodd" fill-rule="evenodd" fill="#FFD28D"/>
<path d="M251.442,176.993C251.442,127.294 224.58,99.033 191.445,99.033L191.445,266.987C224.58,266.987 251.442,241.057 251.442,176.993Z" clip-rule="evenodd" fill-rule="evenodd" fill="#FEC368"/>
<path d="M246.177,217.436C242.977,226.588 237.567,237.591 227.791,237.591C215.568,237.591 206.831,227.482 192.811,227.482L192.695,227.487L192.573,227.482C178.559,227.482 169.821,237.591 157.599,237.591C147.823,237.591 142.415,226.588 139.216,217.436L136.447,199.805L136.447,220.902C136.447,220.902 141.093,245.749 150.009,251.752C157.273,258.32 180.979,269.57 192.57,269.57L192.573,269.57L192.695,269.565L192.811,269.57L192.817,269.57C204.413,269.57 228.119,258.32 235.378,251.752C244.297,245.749 248.943,220.902 248.943,220.902L248.943,199.805L246.177,217.436Z" clip-rule="evenodd" fill-rule="evenodd" fill="#F77C42"/>
<path d="M236.683,179.134C230.883,168.884 229.83,156.477 229.83,156.477C229.83,156.477 239.844,167.267 256.182,175.898C255.5,147.243 254.821,141.77 255.5,114.48C256.179,87.19 171.854,72.863 163.945,110.088C163.945,110.088 175.015,155.939 236.683,179.134Z" clip-rule="evenodd" fill-rule="evenodd" fill="#F77C42"/>
<path d="M166.446,110.78C150.652,103.605 142.02,130.359 138.947,142.805C137.557,148.436 136.304,148.764 133.947,163.63C132.564,172.357 143.479,173.966 143.479,173.966C143.479,173.966 147.93,122.223 166.446,110.78Z" clip-rule="evenodd" fill-rule="evenodd" fill="#F77C42"/>
<path d="M288.675,321.216C281.031,306.366 249.178,294.755 223.983,287.658C222.995,305.249 208.831,319.212 191.445,319.212C174.061,319.212 159.894,305.249 158.909,287.658C133.711,294.755 101.86,306.366 94.214,321.216C84.541,356.508 76.449,401.35 76.449,401.35L306.441,401.35C306.441,401.35 300.977,353.269 288.675,321.216Z" clip-rule="evenodd" fill-rule="evenodd" fill="#FC8B56"/>
<path d="M287.886,323.057C287.756,322.71 287.628,322.369 287.496,322.026C287.628,322.367 287.756,322.71 287.886,323.057Z" clip-rule="evenodd" fill-rule="evenodd" fill="#E6A02E"/>
<path d="M191.255,329C172.978,329 158.084,314.637 157.047,296.542C134.319,302.803 106.486,312.496 93.948,324.765C94.174,323.9 94.4,323.036 94.626,322.177C102.224,306.902 133.878,294.958 158.921,287.658C159.899,305.752 173.978,320.116 191.255,320.116C208.534,320.116 222.611,305.752 223.592,287.658C248.632,294.958 280.288,306.902 287.884,322.177C288.032,322.571 288.174,322.962 288.319,323.358C288.528,323.942 288.734,324.531 288.941,325.121C276.587,312.679 248.414,302.865 225.465,296.542C224.428,314.637 209.535,329 191.255,329Z" clip-rule="evenodd" fill-rule="evenodd" fill="#F77C42"/>
<path d="M148.946,290.6C152.164,312.345 169.94,329 191.443,329C212.949,329 230.722,312.345 233.943,290.6C230.657,289.548 227.413,288.569 224.275,287.658C223.279,305.908 208.987,320.395 191.443,320.395C173.902,320.395 159.607,305.908 158.613,287.658C155.472,288.569 152.232,289.548 148.946,290.6Z" clip-rule="evenodd" fill-rule="evenodd" fill="#ED6829"/>
<path d="M201.445,243.731C201.445,243.731 199.981,238.564 191.445,238.564C183.64,238.564 181.445,243.731 181.445,243.731L201.445,243.731Z" clip-rule="evenodd" fill-rule="evenodd" fill="#FFD28D"/>
<path d="M100.821,57.966C100.821,78.891 114.842,85.25 133.181,88.621L133.181,141.712C133.181,145.612 129.574,148.765 133.153,148.765C133.153,148.765 168.92,141.772 185.825,141.772C203.447,141.772 248.343,151.12 248.343,151.12C250.389,148.765 249.709,145.612 249.709,141.712L249.709,88.621C268.042,85.243 282.064,78.891 282.064,57.966C282.064,34.628 264.644,26.668 243.223,26.668L228.574,26.668C220.372,13.896 206.797,5.51 191.442,5.51C176.087,5.51 162.506,13.896 154.311,26.668L139.655,26.668C118.234,26.675 100.821,34.628 100.821,57.966Z" fill="#FFE5BE"/>
<path d="M186.902,141.772L186.902,5.51L80.067,33.118L96.057,155.631L144.343,163.631L186.902,141.772Z" fill="#F9D7A2"/>
</svg>
