<svg width="28" height="34" viewBox="0 0 28 34" fill="none" xmlns="http://www.w3.org/2000/svg" xmlns:xlink="http://www.w3.org/1999/xlink">
<path d="M25.007,29.018L1.674,29.018C1.232,29.018 0.808,29.188 0.495,29.492C0.183,29.795 0.007,30.206 0.007,30.635C0.007,31.064 0.183,31.476 0.495,31.779C0.808,32.082 1.232,32.253 1.674,32.253L25.007,32.253C25.449,32.253 25.873,32.082 26.186,31.779C26.498,31.476 26.674,31.064 26.674,30.635C26.674,30.206 26.498,29.795 26.186,29.492C25.873,29.188 25.449,29.018 25.007,29.018ZM1.674,25.783L1.824,25.783L8.774,25.169C9.535,25.095 10.247,24.77 10.79,24.247L25.79,9.691C26.373,9.094 26.687,8.298 26.665,7.476C26.643,6.655 26.287,5.875 25.674,5.308L21.107,0.877C20.511,0.334 19.73,0.022 18.913,0.001C18.095,-0.02 17.298,0.252 16.674,0.764L1.674,15.319C1.135,15.847 0.8,16.538 0.724,17.276L0.007,24.021C-0.015,24.257 0.016,24.496 0.1,24.72C0.183,24.943 0.317,25.146 0.49,25.314C0.646,25.464 0.831,25.583 1.034,25.663C1.237,25.744 1.454,25.785 1.674,25.783ZM18.79,3.141L23.34,7.556L20.007,10.71L15.54,6.376L18.79,3.141ZM3.957,17.551L13.34,8.511L17.84,12.877L8.507,21.934L3.507,22.387L3.957,17.551Z" fill="#FFFFFF"/>
<path d="M25.007,29.018L1.674,29.018C1.232,29.018 0.808,29.188 0.495,29.492C0.183,29.795 0.007,30.206 0.007,30.635C0.007,31.064 0.183,31.476 0.495,31.779C0.808,32.082 1.232,32.253 1.674,32.253L25.007,32.253C25.449,32.253 25.873,32.082 26.186,31.779C26.498,31.476 26.674,31.064 26.674,30.635C26.674,30.206 26.498,29.795 26.186,29.492C25.873,29.188 25.449,29.018 25.007,29.018ZM1.674,25.783L1.824,25.783L8.774,25.169C9.535,25.095 10.247,24.77 10.79,24.247L25.79,9.691C26.373,9.094 26.687,8.298 26.665,7.476C26.643,6.655 26.287,5.875 25.674,5.308L21.107,0.877C20.511,0.334 19.73,0.022 18.913,0.001C18.095,-0.02 17.298,0.252 16.674,0.764L1.674,15.319C1.135,15.847 0.8,16.538 0.724,17.276L0.007,24.021C-0.015,24.257 0.016,24.496 0.1,24.72C0.183,24.943 0.317,25.146 0.49,25.314C0.646,25.464 0.831,25.583 1.034,25.663C1.237,25.744 1.454,25.785 1.674,25.783ZM18.79,3.141L23.34,7.556L20.007,10.71L15.54,6.376L18.79,3.141ZM3.957,17.551L13.34,8.511L17.84,12.877L8.507,21.934L3.507,22.387L3.957,17.551Z" fill="#FFFFFF"/>
</svg>
