<svg width="432" height="438" viewBox="0 0 432 438" fill="none" xmlns="http://www.w3.org/2000/svg" xmlns:xlink="http://www.w3.org/1999/xlink">
<mask id="mask_0_1_7" style="mask-type:alpha" maskUnits="userSpaceOnUse" x="0" y="0" width="216" height="216">
<rect  x="0" y="0" width="432" height="432" rx="129.034" fill="#FFF4E4"/>
</mask>
<mask id="mask_0_1_28" style="mask-type:alpha" maskUnits="userSpaceOnUse" x="120" y="6" width="102" height="79.282166">
<path d="M120,63.123C120,85.91 135.782,92.835 156.424,96.506L156.424,154.32C156.424,158.567 152.363,162 156.393,162C156.393,162 196.65,154.385 215.678,154.385C235.513,154.385 286.046,164.564 286.046,164.564C288.348,162 287.583,158.567 287.583,154.32L287.583,96.506C308.218,92.827 324,85.91 324,63.123C324,37.709 304.393,29.041 280.283,29.041L263.794,29.041C254.562,15.132 239.283,6 222,6C204.717,6 189.431,15.132 180.206,29.041L163.71,29.041C139.6,29.049 120,37.709 120,63.123Z" fill="#FFE5BE"/>
</mask>
<path d="M324.92,349.852C310.19,322.176 215.482,304.809 215.482,304.809C215.482,304.809 120.774,322.176 106.044,349.852C95.156,388.258 86.048,437.057 86.048,437.057L344.916,437.057C344.916,437.057 338.768,384.733 324.92,349.852Z" clip-rule="evenodd" fill-rule="evenodd" fill="#FFD28D"/>
<path d="M215.482,304.809C215.482,304.809 310.19,322.176 324.921,349.852C338.767,384.733 344.917,437.057 344.917,437.057L215.482,437.057L215.482,304.809Z" clip-rule="evenodd" fill-rule="evenodd" fill="#FEC368"/>
<path d="M190.158,335.761L240.806,335.761L240.806,248.533L190.158,248.533L190.158,335.761Z" clip-rule="evenodd" fill-rule="evenodd" fill="#FFD28D"/>
<path d="M215.482,335.761L240.806,335.761L240.806,248.533L215.482,248.533L215.482,335.761Z" clip-rule="evenodd" fill-rule="evenodd" fill="#FEC368"/>
<path d="M215.482,307.623C204.524,304.814 193.538,298.104 190.158,288.287L190.158,248.533L215.482,248.533L215.482,307.623Z" clip-rule="evenodd" fill-rule="evenodd" fill="#FFD28D"/>
<path d="M226.595,310.437C223.11,310.437 219.299,309.92 215.482,308.92L215.482,248.533L240.806,248.533L240.806,308.041C236.233,309.59 231.482,310.437 226.595,310.437Z" clip-rule="evenodd" fill-rule="evenodd" fill="#FEC368"/>
<path d="M283.013,192.74C283.013,138.619 253.409,107.844 216.889,107.844C180.373,107.844 150.765,138.619 150.765,192.74C150.765,265.537 180.373,290.74 216.889,290.74C253.409,290.74 283.013,262.504 283.013,192.74Z" clip-rule="evenodd" fill-rule="evenodd" fill="#FFD28D"/>
<path d="M273.658,231.554C261.395,230.298 253.117,217.353 255.195,202.66C257.243,187.955 268.859,177.036 281.125,178.286C293.381,179.539 301.649,192.474 299.578,207.182C297.52,221.888 285.921,232.797 273.658,231.554Z" clip-rule="evenodd" fill-rule="evenodd" fill="#FFD28D"/>
<path d="M134.199,207.182C132.132,192.474 140.396,179.539 152.645,178.286C164.917,177.036 176.531,187.955 178.586,202.66C180.657,217.353 172.373,230.298 160.117,231.554C147.856,232.797 136.257,221.888 134.199,207.182Z" clip-rule="evenodd" fill-rule="evenodd" fill="#FFD28D"/>
<path d="M283.013,192.74C283.013,138.619 252.779,107.844 215.482,107.844L215.482,290.74C252.779,290.74 283.013,262.504 283.013,192.74Z" clip-rule="evenodd" fill-rule="evenodd" fill="#FEC368"/>
<path d="M277.086,236.781C273.485,246.748 267.395,258.73 256.392,258.73C242.635,258.73 232.8,247.721 217.02,247.721L216.889,247.727L216.752,247.721C200.978,247.721 191.144,258.73 177.387,258.73C166.383,258.73 160.296,246.748 156.695,236.781L153.579,217.582L153.579,240.556C153.579,240.556 158.808,267.614 168.843,274.151C177.02,281.303 203.703,293.554 216.749,293.554L216.752,293.554L216.889,293.548L217.02,293.554L217.026,293.554C230.079,293.554 256.761,281.303 264.932,274.151C274.97,267.614 280.199,240.556 280.199,240.556L280.199,217.582L277.086,236.781Z" clip-rule="evenodd" fill-rule="evenodd" fill="#F77C42"/>
<path d="M266.401,195.071C259.873,183.91 258.688,170.398 258.688,170.398C258.688,170.398 269.96,182.148 288.348,191.548C287.581,160.344 286.817,154.384 287.581,124.665C288.345,94.947 193.432,79.345 184.531,119.883C184.531,119.883 196.991,169.813 266.401,195.071Z" clip-rule="evenodd" fill-rule="evenodd" fill="#F77C42"/>
<path d="M187.344,120.636C169.568,112.823 159.852,141.957 156.393,155.51C154.828,161.642 153.418,162 150.765,178.188C149.208,187.692 161.494,189.444 161.494,189.444C161.494,189.444 166.504,133.098 187.344,120.636Z" clip-rule="evenodd" fill-rule="evenodd" fill="#F77C42"/>
<path d="M324.92,349.795C316.318,333.623 280.465,320.979 252.106,313.25C250.995,332.407 235.052,347.612 215.482,347.612C195.916,347.612 179.97,332.407 178.862,313.25C150.5,320.979 114.65,333.623 106.044,349.795C95.156,388.226 86.048,437.057 86.048,437.057L344.916,437.057C344.916,437.057 338.768,384.699 324.92,349.795Z" clip-rule="evenodd" fill-rule="evenodd" fill="#FC8B56"/>
<path d="M324.033,351.798C323.887,351.421 323.743,351.05 323.594,350.675C323.743,351.047 323.887,351.421 324.033,351.798Z" clip-rule="evenodd" fill-rule="evenodd" fill="#E6A02E"/>
<path d="M215.269,358.271C194.697,358.271 177.934,342.63 176.766,322.925C151.184,329.743 119.857,340.298 105.744,353.659C105.999,352.718 106.253,351.776 106.507,350.841C115.059,334.206 150.688,321.2 178.875,313.25C179.976,332.955 195.823,348.596 215.269,348.596C234.718,348.596 250.562,332.955 251.666,313.25C279.85,321.2 315.482,334.206 324.03,350.841C324.198,351.27 324.358,351.695 324.52,352.128C324.756,352.763 324.988,353.405 325.22,354.046C311.314,340.498 279.605,329.811 253.775,322.925C252.608,342.63 235.844,358.271 215.269,358.271Z" clip-rule="evenodd" fill-rule="evenodd" fill="#F77C42"/>
<path d="M167.648,316.454C171.27,340.134 191.278,358.271 215.481,358.271C239.687,358.271 259.692,340.134 263.317,316.454C259.618,315.309 255.968,314.243 252.435,313.25C251.314,333.125 235.227,348.9 215.481,348.9C195.737,348.9 179.647,333.125 178.529,313.25C174.993,314.243 171.346,315.309 167.648,316.454Z" clip-rule="evenodd" fill-rule="evenodd" fill="#ED6829"/>
<path d="M226.737,265.416C226.737,265.416 225.09,259.788 215.482,259.788C206.697,259.788 204.227,265.416 204.227,265.416L226.737,265.416Z" clip-rule="evenodd" fill-rule="evenodd" fill="#FFD28D"/>
<path d="M120,63.123C120,85.91 135.782,92.835 156.424,96.506L156.424,154.32C156.424,158.567 152.363,162 156.393,162C156.393,162 196.65,154.385 215.678,154.385C235.513,154.385 286.046,164.564 286.046,164.564C288.348,162 287.583,158.567 287.583,154.32L287.583,96.506C308.218,92.827 324,85.91 324,63.123C324,37.709 304.393,29.041 280.283,29.041L263.794,29.041C254.562,15.132 239.283,6 222,6C204.717,6 189.431,15.132 180.206,29.041L163.71,29.041C139.6,29.049 120,37.709 120,63.123Z" fill="#FFE5BE"/>
<path d="M216.889,154.385L216.889,6L96.64,36.065L114.638,169.477L168.986,178.188L216.889,154.385Z" fill="#F9D7A2"/>
</svg>
