<svg width="64" height="62" viewBox="0 0 64 62" fill="none" xmlns="http://www.w3.org/2000/svg" xmlns:xlink="http://www.w3.org/1999/xlink">
<g opacity="0.4" style="isolation:isolate">
<path d="M15.023,2.08L11.823,2.08C9.613,2.055 7.751,3.726 7.539,5.926L7.499,6.72L10.699,6.72L10.739,5.926C10.951,3.726 12.813,2.055 15.023,2.08Z" fill="#FC8E56"/>
</g>
<g opacity="0.4" style="isolation:isolate">
<path d="M9.424,8.64L6.224,8.64C3.851,8.64 1.92,10.64 1.92,13.014L1.92,16L5.12,16L5.12,13.014C5.12,10.64 7.051,8.64 9.424,8.64Z" fill="#FC8E56"/>
</g>
<g opacity="0.4" style="isolation:isolate">
<path d="M5.299,17.92L5.654,24.8L8.854,24.8L8.499,17.92L5.299,17.92Z" fill="#FC8E56"/>
</g>
<g opacity="0.4" style="isolation:isolate">
<path d="M5.751,26.72L6.818,47.84L10.018,47.84L8.951,26.72L5.751,26.72Z" fill="#FC8E56"/>
</g>
<g opacity="0.4" style="isolation:isolate">
<path d="M10.36,54.623L10.114,49.76L6.914,49.76L7.16,54.623C7.274,56.916 9.164,58.716 11.459,58.72L14.659,58.72C12.364,58.716 10.474,56.916 10.36,54.623L10.36,54.623Z" fill="#FC8E56"/>
</g>
<path d="M21.671,45.116C17.379,45.116 13.901,41.637 13.901,37.346L13.901,37.346C13.901,33.054 17.379,29.576 21.67,29.575C25.961,29.575 29.439,33.053 29.44,37.344L29.44,37.346C29.44,41.637 25.961,45.116 21.671,45.116ZM21.696,43.221C24.941,43.222 27.571,40.592 27.571,37.347C27.568,34.103 24.939,31.474 21.695,31.471C18.451,31.471 15.821,34.102 15.821,37.347C15.821,40.591 18.451,43.221 21.696,43.221Z" clip-rule="evenodd" fill-rule="evenodd" fill="#FC8E56"/>
<path d="M3.376,17.92L0.96,17.92C0.43,17.92 0,17.412 0,16.882L0,13.014C0.004,9.829 2.409,7.159 5.576,6.824L5.622,5.845L5.623,5.823L5.625,5.802C5.913,2.597 8.605,0.147 11.822,0.16L31.57,0.16C34.787,0.147 37.479,2.597 37.767,5.802C37.769,5.816 37.77,5.83 37.77,5.844L37.816,6.812C41.038,7.087 43.516,9.78 43.52,13.014L43.52,16.882C43.52,17.412 43.09,17.92 42.56,17.92L40.016,17.92L39.597,25.908L38.72,25.825L38.72,26.72L5.751,26.72L6.818,47.84L33.28,47.84L33.28,49.76L6.914,49.76L7.16,54.623C7.274,56.915 9.164,58.716 11.459,58.72L31.933,58.72C32.957,58.72 33.947,58.355 34.726,57.692L35.971,59.154C34.845,60.113 33.413,60.64 31.933,60.64L11.459,60.64C8.151,60.66 5.412,58.074 5.243,54.77L3.376,17.92ZM5.654,24.8L37.738,24.8L38.094,17.92L5.299,17.92L5.654,24.8ZM11.822,2.08L31.57,2.08C33.78,2.055 35.641,3.726 35.854,5.926L35.893,6.72L7.499,6.72L7.539,5.926C7.751,3.726 9.612,2.055 11.822,2.08ZM6.224,8.64C3.851,8.64 1.92,10.64 1.92,13.014L1.92,16L41.6,16L41.6,13.014C41.6,10.64 39.669,8.64 37.296,8.64L6.224,8.64Z" clip-rule="evenodd" fill-rule="evenodd" fill="#FC8E56"/>
<path d="M60.32,36.8L63.04,36.8C63.334,36.814 63.606,36.956 63.785,37.19C63.968,37.428 64.039,37.734 63.979,38.028L59.408,59.878C59.315,60.323 58.923,60.641 58.469,60.64L35.611,60.64C35.156,60.637 34.764,60.316 34.672,59.869L30.101,38.011C30.044,37.722 30.114,37.423 30.294,37.191C30.475,36.959 30.747,36.816 31.04,36.8L33.76,36.8L33.76,28.976C33.754,28.723 33.85,28.477 34.026,28.294C34.202,28.111 34.443,28.005 34.697,28L38.24,28L38.24,24.606C38.24,24.076 38.738,23.68 39.269,23.68L42.88,23.68L42.88,20.958C42.88,20.704 42.981,20.46 43.161,20.28C43.341,20.101 43.586,19.999 43.84,20L47.497,20C48.031,19.997 48.469,20.424 48.48,20.958L48.48,24.32L50.72,24.32L50.72,21.395C50.706,21.152 50.795,20.916 50.964,20.741C51.134,20.567 51.369,20.472 51.611,20.48L55.269,20.48C55.511,20.472 55.746,20.567 55.916,20.741C56.085,20.916 56.174,21.152 56.16,21.395L56.16,24.8L59.383,24.8C59.636,24.802 59.877,24.906 60.053,25.087C60.229,25.268 60.326,25.513 60.32,25.765L60.32,36.8ZM58.4,36.8L58.4,26.72L56.16,26.72L56.16,36.8L58.4,36.8ZM54.24,22.4L54.24,36.8L53.093,36.8C52.955,36.8 52.862,36.868 52.76,36.943C52.723,36.971 52.683,37 52.64,37.027L52.64,22.4L54.24,22.4ZM50.72,39.328L50.72,26.24L48.48,26.24L48.48,40.381C49.291,40.186 50.053,39.828 50.72,39.328ZM46.56,21.92L46.56,40.533C45.956,40.486 45.361,40.346 44.8,40.116L44.8,21.92L46.56,21.92ZM42.88,38.849L42.88,25.6L40.16,25.6L40.16,36.8L40.983,36.8C41.355,36.815 41.688,37.036 41.845,37.374C42.108,37.918 42.458,38.416 42.88,38.849ZM35.68,29.92L38.24,29.92L38.24,36.8L35.68,36.8L35.68,29.92ZM36.391,58.72L57.689,58.72L61.859,38.72L53.663,38.72C52.309,41.12 49.774,42.404 47.041,42.404C44.304,42.404 41.768,41.12 40.414,38.72L32.222,38.72L36.391,58.72Z" clip-rule="evenodd" fill-rule="evenodd" fill="#FEC368"/>
<path d="M38.271,49.12C38.271,49.65 38.701,50.08 39.231,50.08L54.849,50.08C55.379,50.08 55.809,49.65 55.809,49.12C55.809,48.59 55.379,48.16 54.849,48.16L39.231,48.16C38.701,48.16 38.271,48.59 38.271,49.12Z" fill="#FEC368"/>
<path d="M50.043,52.64L39.231,52.64C38.701,52.64 38.271,53.07 38.271,53.6C38.271,54.13 38.701,54.56 39.231,54.56L50.043,54.56C50.574,54.56 51.003,54.13 51.003,53.6C51.003,53.07 50.574,52.64 50.043,52.64Z" fill="#FEC368"/>
</svg>
