<svg width="58" height="54" viewBox="0 0 58 54" fill="none" xmlns="http://www.w3.org/2000/svg" xmlns:xlink="http://www.w3.org/1999/xlink">
<path d="M47.333,22.426C47.333,23.531 48.229,24.426 49.333,24.426C50.438,24.426 51.333,23.531 51.333,22.426L47.333,22.426ZM28,1.093L28,-0.907L28,1.093ZM4.667,22.426C4.667,23.531 5.562,24.426 6.667,24.426C7.771,24.426 8.667,23.531 8.667,22.426L4.667,22.426ZM51.333,22.426C51.333,16.238 48.875,10.303 44.499,5.927L41.671,8.755C45.296,12.381 47.333,17.299 47.333,22.426L51.333,22.426ZM44.499,5.927C40.123,1.551 34.188,-0.907 28,-0.907L28,3.093C33.127,3.093 38.045,5.13 41.671,8.755L44.499,5.927ZM28,-0.907C21.812,-0.907 15.877,1.551 11.501,5.927L14.329,8.755C17.955,5.13 22.872,3.093 28,3.093L28,-0.907ZM11.501,5.927C7.125,10.303 4.667,16.238 4.667,22.426L8.667,22.426C8.667,17.299 10.704,12.381 14.329,8.755L11.501,5.927Z" fill="#FFFFFF"/>
<path d="M1.333,29.258L-0.667,29.258L-0.667,29.258L1.333,29.258ZM5.373,24.085L5.858,26.025L5.859,26.025L5.373,24.085ZM10.013,22.922L9.53,20.981L9.527,20.982L10.013,22.922ZM12,24.474L14,24.474L14,24.473L12,24.474ZM12,39.042L10,39.042L10,39.046L12,39.042ZM10.011,40.597L10.497,38.657L10.496,38.656L10.011,40.597ZM5.371,39.437L4.885,41.377L4.886,41.377L5.371,39.437ZM1.333,34.263L-0.667,34.263L-0.667,34.264L1.333,34.263ZM3.333,34.261L3.333,29.258L-0.667,29.258L-0.667,34.261L3.333,34.261ZM3.333,29.258C3.333,28.515 3.582,27.793 4.04,27.207L0.887,24.745C-0.12,26.034 -0.666,27.623 -0.667,29.258L3.333,29.258ZM4.04,27.207C4.497,26.621 5.137,26.205 5.858,26.025L4.888,22.144C3.302,22.541 1.893,23.457 0.887,24.745L4.04,27.207ZM5.859,26.025L10.499,24.862L9.527,20.982L4.887,22.145L5.859,26.025ZM10.497,24.863C10.438,24.878 10.376,24.879 10.317,24.866L11.149,20.953C10.614,20.84 10.06,20.849 9.53,20.981L10.497,24.863ZM10.317,24.866C10.257,24.853 10.202,24.827 10.154,24.79L12.616,21.638C12.185,21.301 11.684,21.067 11.149,20.953L10.317,24.866ZM10.154,24.79C10.106,24.753 10.067,24.705 10.041,24.65L13.635,22.896C13.396,22.405 13.047,21.974 12.616,21.638L10.154,24.79ZM10.041,24.65C10.014,24.596 10,24.536 10,24.475L14,24.473C14,23.927 13.875,23.387 13.635,22.896L10.041,24.65ZM10,24.474L10,39.042L14,39.042L14,24.474L10,24.474ZM10,39.046C10,38.985 10.014,38.925 10.04,38.87L13.637,40.62C13.877,40.127 14.001,39.587 14,39.039L10,39.046ZM10.04,38.87C10.067,38.815 10.106,38.767 10.154,38.73L12.617,41.881C13.048,41.544 13.397,41.113 13.637,40.62L10.04,38.87ZM10.154,38.73C10.202,38.692 10.258,38.666 10.317,38.654L11.146,42.567C11.682,42.453 12.185,42.219 12.617,41.881L10.154,38.73ZM10.317,38.654C10.377,38.641 10.438,38.642 10.497,38.657L9.524,42.537C10.055,42.67 10.61,42.68 11.146,42.567L10.317,38.654ZM10.496,38.656L5.856,37.496L4.886,41.377L9.526,42.537L10.496,38.656ZM5.857,37.497C5.136,37.316 4.496,36.9 4.039,36.314L0.885,38.775C1.891,40.064 3.299,40.98 4.885,41.377L5.857,37.497ZM4.039,36.314C3.582,35.728 3.333,35.006 3.333,34.263L-0.667,34.264C-0.667,35.898 -0.12,37.486 0.885,38.775L4.039,36.314ZM3.333,34.263L3.333,34.261L-0.667,34.261L-0.667,34.263L3.333,34.263Z" fill="#FFFFFF"/>
<path d="M54.667,29.258L56.667,29.258L56.667,29.258L54.667,29.258ZM50.627,24.085L50.141,26.025L50.142,26.025L50.627,24.085ZM45.987,22.922L46.473,20.982L46.47,20.981L45.987,22.922ZM44,24.474L42,24.473L42,24.474L44,24.474ZM44,39.042L46,39.045L46,39.042L44,39.042ZM45.987,40.597L46.47,42.537L46.472,42.537L45.987,40.597ZM50.627,39.437L50.142,37.496L50.142,37.496L50.627,39.437ZM54.667,34.263L56.667,34.264L56.667,34.263L54.667,34.263ZM56.667,34.261L56.667,29.258L52.667,29.258L52.667,34.261L56.667,34.261ZM56.667,29.258C56.666,27.623 56.12,26.034 55.113,24.745L51.96,27.207C52.418,27.793 52.667,28.515 52.667,29.258L56.667,29.258ZM55.113,24.745C54.107,23.457 52.698,22.541 51.112,22.144L50.142,26.025C50.863,26.205 51.503,26.621 51.96,27.207L55.113,24.745ZM51.113,22.145L46.473,20.982L45.501,24.862L50.141,26.025L51.113,22.145ZM46.47,20.981C45.94,20.849 45.386,20.84 44.851,20.953L45.683,24.866C45.624,24.879 45.562,24.878 45.503,24.863L46.47,20.981ZM44.851,20.953C44.316,21.067 43.815,21.301 43.384,21.638L45.846,24.79C45.798,24.827 45.743,24.853 45.683,24.866L44.851,20.953ZM43.384,21.638C42.953,21.974 42.604,22.405 42.365,22.896L45.959,24.65C45.933,24.705 45.894,24.753 45.846,24.79L43.384,21.638ZM42.365,22.896C42.125,23.387 42,23.927 42,24.473L46,24.475C46,24.536 45.986,24.596 45.959,24.65L42.365,22.896ZM42,24.474L42,39.042L46,39.042L46,24.474L42,24.474ZM42,39.04C41.999,39.587 42.123,40.127 42.363,40.619L45.96,38.869C45.986,38.924 46,38.984 46,39.045L42,39.04ZM42.363,40.619C42.602,41.111 42.95,41.542 43.381,41.879L45.847,38.729C45.894,38.767 45.933,38.815 45.96,38.869L42.363,40.619ZM43.381,41.879C43.812,42.217 44.314,42.451 44.85,42.565L45.683,38.653C45.743,38.666 45.799,38.692 45.847,38.729L43.381,41.879ZM44.85,42.565C45.385,42.679 45.939,42.67 46.47,42.537L45.503,38.656C45.562,38.641 45.624,38.64 45.683,38.653L44.85,42.565ZM46.472,42.537L51.112,41.377L50.142,37.496L45.502,38.656L46.472,42.537ZM51.112,41.377C52.698,40.981 54.107,40.065 55.113,38.776L51.96,36.314C51.503,36.9 50.863,37.316 50.142,37.496L51.112,41.377ZM55.113,38.776C56.12,37.487 56.666,35.899 56.667,34.264L52.667,34.263C52.667,35.006 52.418,35.728 51.96,36.314L55.113,38.776ZM56.667,34.263L56.667,34.261L52.667,34.261L52.667,34.263L56.667,34.263Z" fill="#FFFFFF"/>
<path d="M47.333,41.093L47.333,42.426L51.333,42.426L51.333,41.093L47.333,41.093ZM47.333,42.426C47.333,43.31 46.982,44.158 46.357,44.783L49.185,47.612C50.561,46.236 51.333,44.371 51.333,42.426L47.333,42.426ZM46.357,44.783C45.732,45.408 44.884,45.759 44,45.759L44,49.759C45.945,49.759 47.81,48.987 49.185,47.612L46.357,44.783ZM44,45.759L34.667,45.759L34.667,49.759L44,49.759L44,45.759Z" fill="#FFFFFF"/>
<path d="M20,47.759L18,47.759L20,47.759ZM36,47.759L38,47.759L36,47.759ZM32,49.759L24,49.759L24,53.759L32,53.759L32,49.759ZM24,49.759C23.47,49.759 22.961,49.549 22.586,49.174L19.757,52.002C20.883,53.127 22.409,53.759 24,53.759L24,49.759ZM22.586,49.174C22.211,48.799 22,48.29 22,47.759L18,47.759C18,49.351 18.632,50.877 19.757,52.002L22.586,49.174ZM22,47.759C22,47.229 22.211,46.72 22.586,46.345L19.757,43.517C18.632,44.642 18,46.168 18,47.759L22,47.759ZM22.586,46.345C22.961,45.97 23.47,45.759 24,45.759L24,41.759C22.409,41.759 20.883,42.392 19.757,43.517L22.586,46.345ZM24,45.759L32,45.759L32,41.759L24,41.759L24,45.759ZM32,45.759C32.53,45.759 33.039,45.97 33.414,46.345L36.243,43.517C35.117,42.392 33.591,41.759 32,41.759L32,45.759ZM33.414,46.345C33.789,46.72 34,47.229 34,47.759L38,47.759C38,46.168 37.368,44.642 36.243,43.517L33.414,46.345ZM34,47.759C34,48.29 33.789,48.799 33.414,49.174L36.243,52.002C37.368,50.877 38,49.351 38,47.759L34,47.759ZM33.414,49.174C33.039,49.549 32.53,49.759 32,49.759L32,53.759C33.591,53.759 35.117,53.127 36.243,52.002L33.414,49.174Z" fill="#FFFFFF"/>
</svg>
