<svg width="62" height="64" viewBox="0 0 62 64" fill="none" xmlns="http://www.w3.org/2000/svg" xmlns:xlink="http://www.w3.org/1999/xlink">
<path d="M30,32.834C30.552,32.834 31,32.386 31,31.834C31,31.282 30.552,30.834 30,30.834L30,32.834ZM0,31.834L0,30.834C-0.552,30.834 -1,31.282 -1,31.834L0,31.834ZM18.806,62L18.21,62.804C18.383,62.931 18.591,63 18.806,63L18.806,62ZM30,63C30.552,63 31,62.553 31,62C31,61.448 30.552,61 30,61L30,63ZM30,30.834L0,30.834L0,32.834L30,32.834L30,30.834ZM-1,31.834C-1,40.308 3.895,48.081 8.642,53.649C11.03,56.45 13.416,58.733 15.205,60.317C16.099,61.109 16.846,61.727 17.372,62.149C17.634,62.36 17.842,62.522 17.984,62.632C18.056,62.687 18.111,62.729 18.149,62.758C18.168,62.772 18.183,62.783 18.193,62.791C18.198,62.795 18.202,62.798 18.205,62.8C18.207,62.801 18.208,62.802 18.209,62.802C18.209,62.803 18.209,62.803 18.21,62.803C18.21,62.803 18.21,62.804 18.806,62C19.402,61.197 19.402,61.197 19.402,61.197C19.402,61.197 19.402,61.197 19.402,61.197C19.401,61.197 19.401,61.197 19.4,61.196C19.398,61.195 19.395,61.193 19.392,61.19C19.384,61.184 19.371,61.174 19.355,61.162C19.322,61.137 19.271,61.099 19.205,61.048C19.072,60.945 18.876,60.792 18.624,60.59C18.121,60.186 17.399,59.588 16.53,58.819C14.793,57.281 12.477,55.064 10.164,52.351C5.508,46.89 1,39.58 1,31.834L-1,31.834ZM18.806,63L30,63L30,61L18.806,61L18.806,63Z" fill="#FFFFFF"/>
<path d="M9.73,35.54C9.73,34.988 9.283,34.54 8.73,34.54C8.178,34.54 7.73,34.988 7.73,35.54L9.73,35.54ZM20.52,57.129C20.969,57.45 21.594,57.346 21.914,56.896C22.235,56.446 22.13,55.822 21.681,55.501L20.52,57.129ZM30,30.834C29.447,30.834 29,31.281 29,31.834C29,32.386 29.447,32.834 30,32.834L30,30.834ZM60,31.834L61,31.834C61,31.281 60.552,30.834 60,30.834L60,31.834ZM41.194,62L41.194,63C41.408,63 41.617,62.931 41.789,62.803L41.194,62ZM30,61C29.447,61 29,61.448 29,62C29,62.552 29.447,63 30,63L30,61ZM12.965,32.073C13.097,32.609 13.639,32.937 14.175,32.805C14.711,32.673 15.039,32.131 14.907,31.595L12.965,32.073ZM39.444,14.985L39.586,15.975C39.911,15.928 40.191,15.726 40.338,15.433L39.444,14.985ZM40.725,12.426L41.522,11.822C41.313,11.547 40.977,11.399 40.633,11.43C40.289,11.462 39.985,11.669 39.831,11.978L40.725,12.426ZM45.888,19.237L46.062,20.222C46.405,20.162 46.692,19.927 46.819,19.602C46.946,19.278 46.896,18.911 46.685,18.633L45.888,19.237ZM43.055,19.737L42.882,18.752C42.503,18.819 42.196,19.097 42.092,19.467L43.055,19.737ZM34.011,31.137C33.626,31.533 33.635,32.167 34.032,32.551C34.428,32.936 35.061,32.926 35.446,32.53L34.011,31.137ZM7.73,35.54C7.73,41.858 10.992,47.276 14.148,51.052C15.735,52.951 17.321,54.464 18.509,55.503C19.104,56.023 19.602,56.426 19.953,56.701C20.128,56.838 20.267,56.943 20.364,57.015C20.412,57.051 20.45,57.079 20.476,57.098C20.489,57.107 20.499,57.115 20.507,57.12C20.51,57.123 20.513,57.125 20.515,57.126C20.516,57.127 20.517,57.128 20.518,57.128C20.518,57.129 20.519,57.129 20.519,57.129C20.519,57.129 20.52,57.129 21.1,56.315C21.681,55.501 21.681,55.501 21.681,55.501C21.681,55.501 21.681,55.501 21.681,55.501C21.681,55.501 21.681,55.501 21.681,55.501C21.68,55.5 21.678,55.499 21.676,55.498C21.671,55.494 21.664,55.489 21.654,55.481C21.633,55.466 21.601,55.443 21.559,55.411C21.474,55.348 21.347,55.252 21.185,55.125C20.859,54.871 20.39,54.491 19.826,53.997C18.695,53.009 17.188,51.57 15.683,49.769C12.654,46.146 9.73,41.176 9.73,35.54L7.73,35.54ZM30,32.834L60,32.834L60,30.834L30,30.834L30,32.834ZM59,31.834C59,39.58 54.492,46.89 49.836,52.351C47.523,55.063 45.207,57.28 43.469,58.819C42.601,59.587 41.879,60.185 41.375,60.589C41.124,60.792 40.927,60.945 40.795,61.047C40.728,61.098 40.678,61.137 40.645,61.162C40.628,61.174 40.616,61.183 40.608,61.189C40.604,61.192 40.601,61.194 40.6,61.196C40.599,61.196 40.598,61.197 40.598,61.197C40.598,61.197 40.598,61.197 40.598,61.197C40.598,61.197 40.598,61.197 41.194,62C41.789,62.803 41.79,62.803 41.79,62.803C41.79,62.803 41.791,62.802 41.791,62.802C41.792,62.801 41.793,62.801 41.794,62.799C41.797,62.797 41.801,62.794 41.806,62.791C41.817,62.783 41.831,62.772 41.85,62.757C41.888,62.729 41.944,62.687 42.015,62.632C42.158,62.522 42.365,62.36 42.628,62.149C43.153,61.727 43.9,61.108 44.795,60.316C46.583,58.733 48.969,56.45 51.358,53.648C56.105,48.081 61,40.308 61,31.834L59,31.834ZM41.194,61L30,61L30,63L41.194,63L41.194,61ZM14.907,31.595C13.99,27.868 16.513,24.487 21.457,21.658C26.325,18.873 33.114,16.906 39.586,15.975L39.302,13.995C32.678,14.948 25.622,16.971 20.464,19.922C15.382,22.829 11.699,26.931 12.965,32.073L14.907,31.595ZM40.338,15.433L41.619,12.874L39.831,11.978L38.55,14.538L40.338,15.433ZM39.928,13.03L45.091,19.841L46.685,18.633L41.522,11.822L39.928,13.03ZM45.714,18.253L42.882,18.752L43.229,20.722L46.062,20.222L45.714,18.253ZM42.092,19.467C41.459,21.726 39.498,24.611 37.588,27.019C36.65,28.201 35.753,29.234 35.091,29.97C34.76,30.338 34.488,30.632 34.3,30.833C34.206,30.933 34.133,31.01 34.083,31.061C34.059,31.087 34.04,31.107 34.028,31.119C34.022,31.126 34.017,31.13 34.014,31.133C34.013,31.135 34.012,31.136 34.011,31.137C34.011,31.137 34.011,31.137 34.011,31.137C34.011,31.137 34.011,31.137 34.011,31.137C34.011,31.137 34.011,31.137 34.728,31.834C35.446,32.53 35.446,32.53 35.446,32.53C35.446,32.53 35.446,32.53 35.446,32.53C35.447,32.529 35.447,32.529 35.448,32.528C35.449,32.527 35.45,32.526 35.452,32.524C35.456,32.52 35.461,32.514 35.469,32.507C35.483,32.492 35.503,32.471 35.53,32.443C35.583,32.387 35.66,32.306 35.758,32.201C35.955,31.991 36.237,31.687 36.578,31.308C37.26,30.549 38.185,29.485 39.155,28.261C41.062,25.857 43.265,22.694 44.018,20.007L42.092,19.467Z" fill="#FFFFFF"/>
<path d="M15.237,31.732C15.181,32.281 15.581,32.772 16.131,32.829C16.68,32.885 17.171,32.485 17.227,31.936L15.237,31.732ZM40.501,16.91C41.026,16.736 41.31,16.17 41.136,15.646C40.962,15.122 40.396,14.837 39.872,15.011L40.501,16.91ZM17.227,31.936C17.423,30.025 18.536,27.828 21.995,25.307C25.475,22.77 31.232,19.982 40.501,16.91L39.872,15.011C30.532,18.107 24.545,20.973 20.817,23.69C17.068,26.422 15.509,29.077 15.237,31.732L17.227,31.936Z" fill="#FFFFFF"/>
<path d="M41.144,17.474C41.629,17.21 41.809,16.603 41.545,16.118C41.281,15.633 40.674,15.453 40.189,15.717L41.144,17.474ZM18.899,31.2C18.549,31.627 18.612,32.257 19.039,32.607C19.466,32.957 20.096,32.895 20.446,32.468L18.899,31.2ZM42.867,18.964C43.177,18.507 43.058,17.886 42.601,17.576C42.144,17.265 41.522,17.385 41.212,17.842L42.867,18.964ZM29.51,30.961C29.029,31.231 28.857,31.841 29.127,32.322C29.397,32.804 30.006,32.976 30.488,32.706L29.51,30.961ZM25.418,30.989C24.951,31.285 24.813,31.903 25.109,32.369C25.405,32.836 26.023,32.974 26.489,32.678L25.418,30.989ZM42.067,18.171C42.448,17.771 42.432,17.138 42.031,16.758C41.631,16.377 40.998,16.393 40.618,16.794L42.067,18.171ZM44.058,16.976C43.644,17.341 43.603,17.973 43.968,18.388C44.333,18.802 44.964,18.843 45.379,18.478L44.058,16.976ZM57.937,6.102L57.277,5.351L57.276,5.352L57.937,6.102ZM58.25,2.855L57.448,3.453L57.449,3.455L58.25,2.855ZM55.259,2.516L55.92,3.267L55.92,3.266L55.259,2.516ZM41.379,13.389C40.965,13.754 40.924,14.386 41.289,14.801C41.654,15.215 42.285,15.256 42.7,14.891L41.379,13.389ZM40.189,15.717C33.185,19.524 24.795,24.007 18.899,31.2L20.446,32.468C26.051,25.63 34.072,21.319 41.144,17.474L40.189,15.717ZM41.212,17.842C37.59,23.181 34.625,26.484 32.585,28.44C31.565,29.418 30.777,30.059 30.253,30.45C29.992,30.646 29.796,30.779 29.671,30.861C29.608,30.902 29.563,30.929 29.536,30.946C29.523,30.954 29.514,30.959 29.51,30.962C29.508,30.963 29.507,30.964 29.507,30.963C29.507,30.963 29.507,30.963 29.508,30.963C29.508,30.963 29.508,30.962 29.509,30.962C29.509,30.962 29.51,30.962 29.51,30.962C29.51,30.962 29.51,30.961 29.999,31.834C30.488,32.706 30.489,32.706 30.489,32.705C30.489,32.705 30.49,32.705 30.49,32.705C30.491,32.704 30.492,32.704 30.493,32.703C30.494,32.702 30.497,32.701 30.499,32.7C30.504,32.697 30.51,32.694 30.517,32.69C30.531,32.682 30.549,32.671 30.572,32.657C30.618,32.629 30.682,32.589 30.762,32.537C30.924,32.431 31.155,32.273 31.451,32.052C32.043,31.61 32.893,30.915 33.969,29.883C36.121,27.819 39.176,24.406 42.867,18.964L41.212,17.842ZM26.489,32.678C28.802,31.21 32.729,27.538 36.003,24.322C37.657,22.697 39.173,21.16 40.274,20.029C40.825,19.464 41.273,19 41.583,18.677C41.738,18.516 41.859,18.39 41.941,18.304C41.982,18.261 42.014,18.228 42.035,18.206C42.046,18.194 42.054,18.186 42.059,18.18C42.062,18.177 42.064,18.175 42.065,18.174C42.066,18.173 42.066,18.173 42.067,18.172C42.067,18.172 42.067,18.172 42.067,18.172C42.067,18.172 42.067,18.171 41.343,17.483C40.618,16.794 40.618,16.794 40.618,16.794C40.617,16.794 40.617,16.794 40.617,16.794C40.617,16.794 40.616,16.795 40.616,16.796C40.615,16.797 40.613,16.799 40.61,16.802C40.605,16.807 40.597,16.815 40.587,16.826C40.566,16.848 40.536,16.88 40.495,16.922C40.414,17.007 40.295,17.132 40.141,17.292C39.834,17.611 39.389,18.072 38.842,18.633C37.747,19.757 36.243,21.283 34.601,22.895C31.283,26.155 27.515,29.658 25.418,30.989L26.489,32.678ZM45.379,18.478L58.597,6.853L57.276,5.352L44.058,16.976L45.379,18.478ZM58.596,6.854C58.914,6.576 59.173,6.236 59.362,5.858L57.574,4.962C57.496,5.117 57.394,5.248 57.277,5.351L58.596,6.854ZM59.362,5.858C59.551,5.479 59.669,5.067 59.709,4.645L57.718,4.453C57.701,4.635 57.651,4.808 57.574,4.962L59.362,5.858ZM59.709,4.645C59.75,4.223 59.714,3.796 59.602,3.388L57.673,3.916C57.72,4.089 57.736,4.272 57.718,4.453L59.709,4.645ZM59.602,3.388C59.49,2.979 59.303,2.594 59.05,2.256L57.449,3.455C57.548,3.587 57.625,3.744 57.673,3.916L59.602,3.388ZM59.051,2.258C58.799,1.919 58.483,1.632 58.119,1.418L57.104,3.141C57.231,3.216 57.349,3.321 57.448,3.453L59.051,2.258ZM58.119,1.418C57.755,1.203 57.352,1.067 56.932,1.019L56.706,3.006C56.842,3.022 56.977,3.066 57.104,3.141L58.119,1.418ZM56.932,1.019C56.512,0.971 56.088,1.014 55.686,1.144L56.3,3.047C56.433,3.004 56.571,2.991 56.706,3.006L56.932,1.019ZM55.686,1.144C55.284,1.273 54.915,1.486 54.598,1.765L55.92,3.266C56.037,3.163 56.167,3.09 56.3,3.047L55.686,1.144ZM54.599,1.765L41.379,13.389L42.7,14.891L55.92,3.267L54.599,1.765Z" fill="#FFFFFF"/>
</svg>
