<svg width="40" height="38" viewBox="0 0 40 38" fill="none" xmlns="http://www.w3.org/2000/svg" xmlns:xlink="http://www.w3.org/1999/xlink">
<path d="M18.134,25.01C17.996,24.568 17.586,24.264 17.009,24.177L12.303,23.463L10.198,19.013C9.94,18.467 9.536,18.153 9.091,18.153C8.645,18.153 8.242,18.467 7.984,19.013L5.879,23.463L1.173,24.177C0.596,24.264 0.186,24.568 0.048,25.01C-0.089,25.453 0.071,25.95 0.489,26.375L3.894,29.839L3.09,34.73C2.987,35.356 3.163,35.731 3.328,35.935C3.521,36.175 3.804,36.307 4.123,36.307C4.363,36.307 4.618,36.233 4.882,36.089L9.091,33.78L13.3,36.089C13.564,36.234 13.819,36.307 14.059,36.307L14.059,36.307C14.378,36.307 14.661,36.175 14.854,35.935C15.019,35.731 15.195,35.356 15.092,34.73L14.288,29.839L17.693,26.375C18.111,25.95 18.271,25.453 18.134,25.01Z" fill="#FC8B56"/>
<path d="M39.952,25.01C39.814,24.568 39.404,24.264 38.827,24.177L34.121,23.463L32.016,19.013C31.758,18.467 31.355,18.153 30.909,18.153C30.463,18.153 30.06,18.467 29.802,19.013L27.697,23.463L22.992,24.177C22.414,24.264 22.004,24.568 21.866,25.01C21.729,25.453 21.889,25.95 22.307,26.375L25.712,29.839L24.908,34.73C24.806,35.356 24.981,35.731 25.146,35.935C25.339,36.175 25.622,36.307 25.941,36.307C26.181,36.307 26.437,36.233 26.7,36.089L30.909,33.78L35.118,36.089C35.382,36.234 35.637,36.307 35.877,36.307L35.877,36.307C36.196,36.307 36.479,36.175 36.673,35.935C36.837,35.731 37.013,35.356 36.91,34.73L36.106,29.839L39.511,26.375C39.929,25.95 40.089,25.453 39.952,25.01Z" fill="#FC8B56"/>
<path d="M29.043,6.857C28.905,6.415 28.495,6.111 27.918,6.023L23.212,5.309L21.107,0.859C20.849,0.313 20.446,0 20,0C19.555,0 19.151,0.313 18.893,0.859L16.788,5.309L12.083,6.023C11.505,6.111 11.095,6.415 10.957,6.857C10.82,7.299 10.98,7.797 11.398,8.221L14.803,11.685L13.999,16.577C13.897,17.202 14.072,17.577 14.237,17.782C14.43,18.021 14.713,18.153 15.032,18.153C15.272,18.153 15.528,18.08 15.791,17.935L20,15.626L24.209,17.936C24.473,18.08 24.728,18.153 24.968,18.153L24.968,18.153C25.287,18.153 25.57,18.021 25.764,17.782C25.929,17.577 26.104,17.202 26.001,16.577L25.197,11.685L28.602,8.221C29.02,7.797 29.18,7.299 29.043,6.857Z" fill="#FC8B56"/>
</svg>
