<svg width="44" height="40" viewBox="0 0 44 40" fill="none" xmlns="http://www.w3.org/2000/svg" xmlns:xlink="http://www.w3.org/1999/xlink">
<path d="M43.259,15.395L22.533,0.219C22.134,-0.073 21.591,-0.073 21.191,0.219L0.465,15.395C-0.041,15.765 -0.151,16.476 0.22,16.982C0.59,17.489 1.301,17.598 1.807,17.228L21.862,2.544L41.917,17.228C42.119,17.376 42.354,17.447 42.587,17.447C42.937,17.447 43.282,17.286 43.505,16.982C43.875,16.476 43.765,15.765 43.259,15.395Z" fill="#FC8B56"/>
<path d="M37.767,17.485C37.14,17.485 36.631,17.994 36.631,18.621L36.631,36.704L27.543,36.704L27.543,26.833C27.543,23.701 24.994,21.153 21.862,21.153C18.73,21.153 16.181,23.701 16.181,26.833L16.181,36.704L7.093,36.704L7.093,18.621C7.093,17.994 6.584,17.485 5.957,17.485C5.33,17.485 4.821,17.994 4.821,18.621L4.821,37.84C4.821,38.468 5.33,38.976 5.957,38.976L17.317,38.976C17.915,38.976 18.404,38.515 18.449,37.929C18.452,37.902 18.454,37.873 18.454,37.84L18.454,26.833C18.454,24.954 19.983,23.425 21.862,23.425C23.742,23.425 25.271,24.954 25.271,26.833L25.271,37.84C25.271,37.873 25.273,37.902 25.275,37.928C25.32,38.514 25.809,38.976 26.407,38.976L37.767,38.976C38.395,38.976 38.903,38.468 38.903,37.84L38.903,18.621C38.903,17.994 38.395,17.485 37.767,17.485Z" fill="#FC8B56"/>
</svg>
