<svg width="22" height="18" viewBox="0 0 22 18" fill="none" xmlns="http://www.w3.org/2000/svg" xmlns:xlink="http://www.w3.org/1999/xlink">
<g opacity="0.3" style="isolation:isolate">
<path d="M0,6.484C0,9.071 1.634,9.857 3.771,10.274L3.771,16.837C3.771,17.319 3.771,17.319 3.768,18L17.35,18C17.35,18 17.35,17.476 17.35,16.837L17.35,10.274C19.486,9.856 21.12,9.071 21.12,6.484C21.12,3.6 19.09,2.616 16.594,2.616L14.887,2.616C13.931,1.037 12.349,0 10.56,0C8.771,0 7.188,1.037 6.233,2.616L4.525,2.616C2.029,2.616 0,3.6 0,6.484Z" fill="#FC8B56"/>
</g>
</svg>
