<svg width="42" height="42" viewBox="0 0 42 42" fill="none" xmlns="http://www.w3.org/2000/svg" xmlns:xlink="http://www.w3.org/1999/xlink">
<g opacity="0.5" style="isolation:isolate">
<path d="M36.879,16.081L39.825,16.581C41.079,16.791 41.991,17.87 41.974,19.141L41.974,22.833C41.974,24.104 41.062,25.182 39.808,25.393L36.862,25.884C36.564,26.866 36.16,27.822 35.678,28.742L37.414,31.18C38.151,32.215 38.028,33.626 37.134,34.521L34.521,37.134C34.03,37.625 33.381,37.896 32.688,37.896C32.144,37.896 31.618,37.73 31.18,37.414L28.751,35.678C27.839,36.16 26.884,36.555 25.893,36.862L25.393,39.808C25.182,41.062 24.104,41.974 22.833,41.974L19.132,41.974C17.861,41.974 16.782,41.062 16.572,39.808L16.081,36.862C15.125,36.564 14.196,36.187 13.31,35.722L10.846,37.476C10.408,37.791 9.891,37.958 9.347,37.958C8.654,37.958 8.005,37.686 7.514,37.195L4.901,34.582C3.998,33.688 3.884,32.276 4.621,31.241L6.348,28.839C5.857,27.927 5.454,26.971 5.147,25.989L2.166,25.481C0.912,25.27 0,24.192 0,22.92L0,19.229C0,17.957 0.912,16.879 2.166,16.668L5.077,16.177C5.375,15.187 5.761,14.231 6.243,13.31L4.489,10.846C3.753,9.812 3.876,8.4 4.77,7.506L7.392,4.893C7.874,4.402 8.532,4.13 9.224,4.13C9.768,4.13 10.294,4.296 10.732,4.612L13.144,6.348C14.056,5.857 15.011,5.454 15.993,5.147L16.502,2.166C16.712,0.912 17.791,0 19.062,0L22.754,0C24.025,0 25.104,0.912 25.314,2.166L25.805,5.077C26.831,5.384 27.822,5.796 28.769,6.296L31.206,4.559C31.645,4.244 32.162,4.077 32.706,4.077C33.398,4.077 34.047,4.349 34.538,4.84L37.151,7.453C38.054,8.347 38.168,9.759 37.432,10.794L35.696,13.223C36.178,14.134 36.572,15.09 36.879,16.081ZM39.431,23.061C39.545,23.043 39.624,22.947 39.624,22.833L39.633,22.833L39.633,19.141C39.633,19.027 39.554,18.931 39.44,18.913L35.757,18.291C35.301,18.22 34.924,17.879 34.81,17.423C34.477,16.134 33.968,14.897 33.284,13.749C33.048,13.345 33.065,12.837 33.337,12.46L35.503,9.417C35.564,9.321 35.555,9.198 35.476,9.119L32.863,6.506C32.802,6.445 32.732,6.436 32.697,6.436C32.653,6.436 32.609,6.453 32.565,6.48L29.54,8.654C29.154,8.926 28.655,8.944 28.251,8.707C27.076,8.014 25.814,7.497 24.49,7.164C24.034,7.05 23.692,6.673 23.613,6.208L22.999,2.552C22.982,2.438 22.885,2.359 22.771,2.359L19.08,2.359C18.966,2.359 18.869,2.438 18.852,2.552L18.22,6.261C18.142,6.716 17.8,7.085 17.352,7.208C16.063,7.541 14.827,8.067 13.687,8.751C13.284,8.987 12.775,8.97 12.39,8.698L9.365,6.541C9.329,6.515 9.286,6.497 9.233,6.497C9.189,6.497 9.128,6.506 9.066,6.567L6.453,9.18C6.375,9.259 6.366,9.391 6.427,9.479L8.61,12.547C8.882,12.924 8.909,13.424 8.672,13.828C7.997,14.976 7.497,16.221 7.172,17.51C7.058,17.966 6.681,18.308 6.217,18.387L2.56,19.001C2.446,19.018 2.367,19.115 2.367,19.229L2.367,22.92C2.367,23.034 2.446,23.131 2.56,23.148L6.269,23.78C6.725,23.858 7.094,24.2 7.216,24.648C7.549,25.937 8.076,27.173 8.76,28.313C8.996,28.716 8.979,29.225 8.707,29.61L6.55,32.635C6.489,32.732 6.497,32.855 6.576,32.934L9.189,35.547C9.251,35.608 9.321,35.617 9.356,35.617C9.4,35.617 9.443,35.599 9.487,35.573L12.556,33.39C12.758,33.241 13.003,33.17 13.24,33.17C13.442,33.17 13.652,33.223 13.836,33.328C14.967,33.977 16.177,34.477 17.431,34.801C17.879,34.915 18.22,35.284 18.299,35.748L18.913,39.431C18.931,39.545 19.027,39.624 19.141,39.624L22.833,39.624C22.947,39.624 23.043,39.545 23.061,39.431L23.683,35.748C23.753,35.292 24.095,34.915 24.551,34.801C25.84,34.468 27.076,33.959 28.225,33.276C28.628,33.039 29.137,33.056 29.514,33.328L32.557,35.494C32.592,35.52 32.635,35.538 32.688,35.538C32.732,35.538 32.793,35.529 32.855,35.468L35.468,32.855C35.547,32.776 35.555,32.644 35.494,32.557L33.328,29.505C33.056,29.119 33.039,28.62 33.276,28.216C33.959,27.068 34.468,25.831 34.801,24.542C34.915,24.095 35.284,23.753 35.748,23.674L39.431,23.061Z" clip-rule="evenodd" fill-rule="evenodd" fill="#FC8B56"/>
<path d="M11.934,20.982C11.934,15.985 15.993,11.925 20.991,11.925C25.989,11.925 30.049,15.985 30.049,20.982C30.049,25.98 25.989,30.04 20.991,30.04C15.993,30.04 11.934,25.98 11.934,20.982ZM14.301,20.982C14.301,24.674 17.3,27.673 20.991,27.673C24.683,27.673 27.681,24.674 27.681,20.982C27.681,17.291 24.683,14.292 20.991,14.292C17.3,14.292 14.301,17.291 14.301,20.982Z" clip-rule="evenodd" fill-rule="evenodd" fill="#FC8B56"/>
</g>
</svg>
