<svg width="64" height="64" viewBox="0 0 64 64" fill="none" xmlns="http://www.w3.org/2000/svg" xmlns:xlink="http://www.w3.org/1999/xlink">
<path d="M55.01,41.757C54.802,41.507 54.599,41.257 54.399,41.015C51.649,37.689 49.985,35.682 49.985,26.265C49.985,21.39 48.819,17.39 46.52,14.39C44.825,12.174 42.534,10.493 39.514,9.25C39.475,9.229 39.44,9.2 39.411,9.167C38.325,5.529 35.352,3.093 32,3.093C28.647,3.093 25.676,5.529 24.59,9.163C24.561,9.195 24.527,9.223 24.489,9.244C17.441,12.145 14.016,17.712 14.016,26.262C14.016,35.682 12.355,37.689 9.603,41.012C9.403,41.253 9.199,41.498 8.991,41.753C8.455,42.399 8.116,43.186 8.013,44.019C7.91,44.852 8.048,45.698 8.41,46.455C9.181,48.08 10.825,49.089 12.701,49.089L51.312,49.089C53.18,49.089 54.812,48.082 55.586,46.464C55.95,45.706 56.089,44.86 55.987,44.026C55.885,43.192 55.546,42.404 55.01,41.757L55.01,41.757Z" stroke="#FFFFFF" stroke-width="2" stroke-miterlimit="3.999327"/>
<path d="M32,59.093C33.806,59.091 35.579,58.601 37.129,57.674C38.679,56.747 39.949,55.417 40.805,53.827C40.845,53.75 40.865,53.665 40.863,53.579C40.86,53.493 40.836,53.408 40.791,53.335C40.747,53.261 40.684,53.2 40.609,53.157C40.534,53.115 40.449,53.093 40.363,53.093L23.64,53.093C23.554,53.092 23.469,53.115 23.393,53.157C23.318,53.199 23.255,53.26 23.21,53.334C23.166,53.408 23.141,53.492 23.138,53.578C23.136,53.665 23.156,53.75 23.196,53.827C24.052,55.417 25.322,56.746 26.872,57.674C28.422,58.601 30.194,59.091 32,59.093Z" fill="#FFFFFF"/>
</svg>
