<svg width="24" height="26" viewBox="0 0 24 26" fill="none" xmlns="http://www.w3.org/2000/svg" xmlns:xlink="http://www.w3.org/1999/xlink">
<path d="M19.636,17.186C18.471,17.186 17.375,17.645 16.551,18.477C16.322,18.708 16.125,18.962 15.955,19.23L8.415,14.608C8.614,14.104 8.727,13.556 8.727,12.981C8.727,12.406 8.614,11.857 8.415,11.353L15.957,6.766C16.732,7.995 18.09,8.814 19.636,8.814C22.042,8.814 24,6.837 24,4.407C24,1.977 22.042,0 19.636,0C17.23,0 15.273,1.977 15.273,4.407C15.273,4.96 15.379,5.488 15.564,5.976L8.012,10.57C7.232,9.369 5.889,8.574 4.364,8.574C1.958,8.574 0,10.551 0,12.981C0,15.41 1.958,17.387 4.364,17.387C5.889,17.387 7.231,16.592 8.012,15.392L15.562,20.02C15.375,20.516 15.273,21.046 15.273,21.593C15.273,22.77 15.727,23.877 16.551,24.709C17.375,25.542 18.471,26 19.636,26C20.802,26 21.898,25.542 22.722,24.709C23.546,23.877 24,22.77 24,21.593C24,20.416 23.546,19.309 22.722,18.477C21.898,17.645 20.802,17.186 19.636,17.186Z" fill="#FC8B56"/>
</svg>
