<svg width="32" height="42" viewBox="0 0 32 42" fill="none" xmlns="http://www.w3.org/2000/svg" xmlns:xlink="http://www.w3.org/1999/xlink">
<path d="M30,40L29.442,40.83C29.749,41.036 30.144,41.056 30.47,40.883C30.796,40.709 31,40.369 31,40L30,40ZM2,40L1,40C1,40.367 1.201,40.704 1.523,40.879C1.845,41.054 2.237,41.038 2.545,40.839L2,40ZM5.5,1L26.5,1L26.5,-1L5.5,-1L5.5,1ZM29,3.5L29,40L31,40L31,3.5L29,3.5ZM30,40C30.558,39.17 30.558,39.17 30.558,39.17C30.557,39.17 30.557,39.17 30.557,39.17C30.557,39.169 30.557,39.169 30.556,39.169C30.556,39.169 30.556,39.169 30.555,39.168C30.555,39.168 30.554,39.168 30.554,39.167C30.553,39.167 30.553,39.167 30.552,39.166C30.551,39.166 30.551,39.165 30.55,39.165C30.549,39.164 30.549,39.164 30.548,39.163C30.535,39.155 30.537,39.156 30.518,39.143C30.44,39.091 30.506,39.135 30.403,39.066C30.337,39.022 30.391,39.058 30.319,39.009C30.293,38.992 30.297,38.995 30.27,38.977C30.265,38.973 30.25,38.963 30.244,38.959C30.24,38.957 30.236,38.954 30.231,38.951C30.227,38.948 30.222,38.944 30.218,38.941C30.195,38.926 30.185,38.919 30.161,38.903C30.132,38.884 30.13,38.882 30.1,38.862C30.083,38.851 30.085,38.852 30.068,38.841C30.051,38.83 30.052,38.83 30.035,38.819C30.022,38.81 30.014,38.805 30.001,38.796C30,38.795 29.968,38.774 29.966,38.773C29.88,38.715 29.761,38.634 29.655,38.563C29.533,38.481 29.428,38.411 29.288,38.317C29.2,38.258 29.177,38.242 29.085,38.181C29.064,38.166 29.054,38.16 29.033,38.145C28.991,38.117 29.021,38.137 28.979,38.109C28.973,38.105 28.931,38.077 28.925,38.073C28.891,38.05 28.905,38.059 28.87,38.036C28.815,37.999 28.871,38.037 28.815,37.999C28.806,37.993 28.796,37.987 28.787,37.98C28.778,37.974 28.768,37.968 28.759,37.961C28.719,37.935 28.742,37.95 28.702,37.923C28.692,37.917 28.683,37.91 28.673,37.904C28.664,37.897 28.654,37.891 28.644,37.884C28.638,37.88 28.593,37.85 28.586,37.845C28.576,37.838 28.538,37.813 28.527,37.806C28.485,37.778 28.51,37.794 28.468,37.766C28.458,37.759 28.448,37.752 28.438,37.746C28.428,37.739 28.418,37.732 28.408,37.725C27.14,36.874 25.375,35.688 23.678,34.547C21.937,33.378 20.258,32.25 18.948,31.369C18.302,30.936 17.766,30.575 17.389,30.322C17.203,30.197 17.051,30.095 16.952,30.029C16.903,29.996 16.862,29.968 16.837,29.951C16.822,29.941 16.817,29.938 16.808,29.932C16.804,29.929 16.802,29.928 16.8,29.927C16.798,29.926 16.8,29.926 16.798,29.925C16.798,29.925 16.798,29.925 16.798,29.925C16.798,29.925 17.122,30.285 17.24,30.755L15.24,30.755C15.357,31.225 15.682,31.585 15.682,31.585C15.683,31.585 15.683,31.585 15.683,31.585C15.683,31.586 15.683,31.586 15.684,31.586C15.684,31.586 15.684,31.586 15.685,31.587C15.688,31.589 15.688,31.589 15.692,31.592C15.7,31.597 15.708,31.602 15.722,31.612C15.747,31.629 15.787,31.655 15.837,31.689C15.937,31.756 16.086,31.857 16.274,31.982C16.673,32.251 17.164,32.58 17.832,33.03C19.118,33.893 20.847,35.055 22.562,36.208C22.576,36.217 22.589,36.226 22.603,36.235C22.616,36.244 22.629,36.253 22.643,36.262C22.656,36.271 22.67,36.28 22.683,36.289C22.697,36.298 22.71,36.307 22.724,36.316C22.757,36.339 22.77,36.347 22.804,36.37C22.818,36.379 22.831,36.388 22.844,36.397C22.858,36.406 22.871,36.415 22.885,36.424C22.989,36.494 23.103,36.571 23.206,36.64C23.414,36.78 23.641,36.932 23.846,37.07C23.859,37.079 23.872,37.088 23.885,37.096C23.898,37.105 23.912,37.114 23.925,37.123C23.974,37.156 23.955,37.143 24.004,37.176C24.052,37.209 24.113,37.25 24.162,37.282C24.273,37.357 24.364,37.418 24.475,37.492C24.488,37.501 24.501,37.51 24.513,37.519C24.526,37.527 24.539,37.536 24.552,37.545C24.612,37.584 24.57,37.557 24.63,37.597C24.639,37.603 24.698,37.642 24.707,37.648C24.72,37.657 24.733,37.666 24.745,37.674C24.758,37.683 24.771,37.692 24.784,37.7C24.827,37.729 24.817,37.723 24.86,37.752C24.896,37.776 24.901,37.779 24.937,37.803C24.969,37.824 24.981,37.833 25.013,37.854C25.025,37.862 25.038,37.871 25.051,37.879C25.063,37.888 25.076,37.896 25.089,37.905C25.189,37.972 25.29,38.04 25.388,38.106C25.463,38.156 25.388,38.106 25.462,38.156C25.486,38.172 25.512,38.19 25.536,38.206C25.578,38.233 25.568,38.227 25.609,38.255C25.622,38.264 25.67,38.295 25.682,38.304C25.93,38.47 26.013,38.526 26.251,38.686C26.262,38.694 26.274,38.701 26.285,38.709C26.297,38.717 26.308,38.725 26.32,38.732C26.331,38.74 26.343,38.748 26.354,38.755C26.366,38.763 26.377,38.771 26.389,38.778C26.447,38.818 26.398,38.785 26.457,38.824C26.468,38.832 26.479,38.839 26.49,38.847C26.502,38.854 26.513,38.862 26.524,38.869C26.532,38.875 26.583,38.909 26.591,38.914C26.642,38.949 26.607,38.925 26.658,38.959C26.666,38.964 26.716,38.998 26.724,39.004C26.765,39.031 26.748,39.02 26.789,39.048C26.874,39.104 26.77,39.035 26.854,39.091C26.904,39.124 26.869,39.101 26.919,39.134C26.926,39.139 26.975,39.172 26.982,39.177C26.993,39.184 27.003,39.191 27.014,39.199C27.025,39.206 27.035,39.213 27.045,39.22C27.087,39.247 27.13,39.276 27.17,39.303C27.186,39.314 27.215,39.334 27.232,39.345C27.315,39.401 27.209,39.33 27.292,39.386C27.335,39.414 27.31,39.397 27.352,39.426C27.363,39.433 27.401,39.459 27.412,39.466C27.454,39.494 27.429,39.477 27.471,39.505C27.516,39.536 27.484,39.514 27.529,39.545C27.539,39.551 27.548,39.558 27.558,39.564C27.567,39.57 27.577,39.577 27.587,39.583C27.597,39.59 27.633,39.614 27.643,39.621C27.7,39.66 27.643,39.621 27.7,39.659C27.709,39.665 27.718,39.672 27.727,39.678C27.737,39.684 27.746,39.69 27.755,39.696C27.88,39.781 28.063,39.903 28.172,39.977C28.295,40.059 28.435,40.153 28.539,40.223C28.661,40.305 28.749,40.364 28.851,40.433C28.88,40.453 28.857,40.437 28.886,40.456C28.903,40.468 28.903,40.468 28.92,40.479C28.933,40.488 28.94,40.493 28.953,40.501C28.964,40.509 28.973,40.515 28.984,40.522C29.01,40.54 29.021,40.547 29.045,40.563C29.126,40.618 29.023,40.548 29.102,40.602C29.124,40.616 29.134,40.623 29.155,40.637C29.172,40.649 29.188,40.659 29.203,40.67C29.215,40.678 29.237,40.692 29.248,40.699C29.251,40.702 29.255,40.704 29.258,40.706C29.262,40.709 29.265,40.711 29.268,40.713C29.282,40.722 29.275,40.717 29.288,40.726C29.314,40.744 29.299,40.734 29.323,40.75C29.327,40.753 29.352,40.77 29.354,40.771C29.37,40.781 29.367,40.78 29.381,40.789C29.385,40.791 29.401,40.802 29.403,40.804C29.419,40.814 29.423,40.817 29.432,40.823C29.433,40.824 29.434,40.824 29.435,40.825C29.435,40.825 29.436,40.826 29.437,40.826C29.437,40.827 29.438,40.827 29.438,40.827C29.439,40.828 29.439,40.828 29.44,40.828C29.44,40.829 29.441,40.829 29.441,40.829C29.441,40.829 29.441,40.829 29.442,40.83C29.442,40.83 29.442,40.83 29.442,40.83C29.442,40.83 29.442,40.83 30,40ZM17.24,30.755C16.717,29.876 15.695,29.916 15.695,29.916C15.695,29.916 15.695,29.917 15.695,29.917C15.695,29.917 15.694,29.917 15.694,29.917C15.694,29.917 15.693,29.918 15.693,29.918C15.69,29.92 15.69,29.92 15.685,29.923C15.675,29.929 15.671,29.932 15.655,29.943C15.629,29.96 15.587,29.987 15.535,30.02C15.431,30.088 15.278,30.187 15.084,30.314C14.704,30.56 14.129,30.934 13.47,31.361C13.44,31.38 13.438,31.382 13.408,31.402C13.377,31.421 13.374,31.423 13.344,31.443C13.318,31.46 13.306,31.467 13.28,31.485C13.254,31.501 13.241,31.51 13.215,31.527C13.164,31.56 13.135,31.578 13.084,31.612C12.998,31.668 13.036,31.643 12.95,31.699C12.817,31.785 12.812,31.789 12.676,31.877C12.523,31.976 12.548,31.96 12.393,32.06C12.293,32.126 12.205,32.183 12.102,32.249C12.09,32.257 12.078,32.265 12.065,32.273C12.053,32.281 12.041,32.289 12.028,32.297C12.016,32.305 12.004,32.313 11.991,32.321C11.979,32.329 11.966,32.337 11.954,32.345C11.942,32.353 11.929,32.361 11.917,32.369C11.904,32.378 11.892,32.386 11.879,32.394C11.867,32.402 11.854,32.41 11.842,32.418C11.829,32.426 11.817,32.434 11.804,32.443C11.586,32.584 11.416,32.695 11.19,32.841C10.737,33.136 10.377,33.369 9.903,33.677C9.89,33.685 9.876,33.694 9.862,33.703C9.849,33.712 9.835,33.721 9.821,33.73C9.784,33.754 9.776,33.759 9.739,33.783C9.708,33.804 9.605,33.87 9.574,33.891C9.504,33.936 9.561,33.899 9.491,33.944C9.487,33.947 9.412,33.996 9.408,33.998C9.338,34.044 9.395,34.007 9.325,34.052C9.318,34.056 9.249,34.102 9.242,34.106C9.175,34.15 9.226,34.116 9.159,34.16C9.152,34.164 9.082,34.21 9.076,34.214C9.008,34.258 9.06,34.224 8.992,34.268C8.979,34.277 8.965,34.286 8.951,34.295C8.937,34.304 8.923,34.313 8.909,34.322C8.895,34.331 8.881,34.34 8.867,34.349C8.853,34.358 8.84,34.367 8.826,34.376C8.812,34.385 8.798,34.394 8.784,34.403C8.77,34.412 8.756,34.421 8.742,34.43C8.706,34.454 8.612,34.515 8.575,34.539C8.459,34.614 8.358,34.68 8.242,34.755C8.131,34.828 8.02,34.9 7.909,34.972C7.895,34.981 7.881,34.99 7.867,34.999C7.853,35.008 7.84,35.017 7.826,35.025C7.822,35.028 7.747,35.077 7.743,35.079C7.673,35.125 7.73,35.088 7.66,35.133C7.646,35.142 7.632,35.151 7.619,35.16C7.605,35.169 7.591,35.178 7.577,35.187C7.538,35.212 7.533,35.215 7.495,35.241C7.494,35.241 7.413,35.294 7.412,35.294C7.339,35.341 7.402,35.301 7.33,35.348C7.292,35.372 7.285,35.377 7.247,35.401C6.868,35.647 6.32,36.003 5.961,36.236C5.95,36.243 5.894,36.28 5.883,36.287C5.863,36.3 5.825,36.324 5.805,36.337C5.756,36.369 5.777,36.356 5.728,36.387C5.715,36.396 5.702,36.404 5.689,36.412C5.677,36.421 5.664,36.429 5.651,36.437C5.548,36.504 5.447,36.57 5.347,36.635C5.246,36.7 5.147,36.765 5.049,36.828C5.037,36.836 5.024,36.844 5.012,36.852C5,36.86 4.988,36.868 4.975,36.876C4.941,36.898 4.936,36.901 4.903,36.923C4.89,36.931 4.878,36.939 4.866,36.947C4.854,36.955 4.842,36.963 4.83,36.97C4.818,36.978 4.806,36.986 4.794,36.994C4.782,37.002 4.77,37.009 4.758,37.017C4.746,37.025 4.734,37.033 4.722,37.04C4.71,37.048 4.699,37.056 4.687,37.063C4.675,37.071 4.663,37.079 4.651,37.087C4.639,37.094 4.628,37.102 4.616,37.109C4.579,37.133 4.581,37.132 4.545,37.155C4.534,37.163 4.522,37.17 4.51,37.178C4.499,37.186 4.487,37.193 4.475,37.201C4.464,37.208 4.452,37.216 4.441,37.223C4.429,37.231 4.418,37.238 4.406,37.246C4.357,37.277 4.386,37.259 4.337,37.29C4.327,37.297 4.278,37.329 4.269,37.335C4.257,37.343 4.213,37.371 4.201,37.379C4.022,37.495 3.846,37.609 3.68,37.717C2.958,38.186 2.511,38.476 2.067,38.764C2.059,38.77 2.04,38.782 2.031,38.787C2.014,38.799 2.014,38.799 1.996,38.81C1.959,38.834 1.999,38.809 1.962,38.832C1.961,38.833 1.93,38.853 1.929,38.854C1.884,38.883 1.91,38.866 1.866,38.895C1.797,38.94 1.876,38.888 1.807,38.933C1.803,38.936 1.798,38.939 1.793,38.942C1.789,38.945 1.784,38.948 1.78,38.951C1.775,38.954 1.771,38.957 1.766,38.96C1.762,38.962 1.757,38.965 1.753,38.968C1.74,38.976 1.714,38.994 1.703,39.001C1.695,39.006 1.663,39.027 1.657,39.031C1.629,39.049 1.642,39.04 1.615,39.057C1.602,39.066 1.591,39.074 1.579,39.081C1.56,39.094 1.564,39.091 1.546,39.102C1.525,39.116 1.539,39.107 1.519,39.12C1.513,39.124 1.501,39.132 1.496,39.135C1.467,39.154 1.489,39.14 1.466,39.155C1.465,39.155 1.464,39.156 1.463,39.156C1.463,39.157 1.462,39.157 1.461,39.157C1.461,39.158 1.46,39.158 1.46,39.159C1.459,39.159 1.458,39.159 1.458,39.16C1.458,39.16 1.457,39.16 1.457,39.16C1.457,39.161 1.456,39.161 1.456,39.161C1.456,39.161 1.456,39.161 1.456,39.161C1.456,39.161 1.455,39.161 2,40C2.545,40.839 2.545,40.839 2.545,40.839C2.545,40.839 2.545,40.838 2.545,40.838C2.545,40.838 2.546,40.838 2.546,40.838C2.546,40.838 2.547,40.837 2.547,40.837C2.548,40.837 2.548,40.836 2.549,40.836C2.549,40.836 2.55,40.835 2.55,40.835C2.551,40.835 2.552,40.834 2.552,40.834C2.553,40.833 2.554,40.833 2.555,40.832C2.556,40.831 2.557,40.831 2.558,40.83C2.559,40.83 2.56,40.829 2.561,40.828C2.562,40.828 2.563,40.827 2.564,40.826C2.565,40.825 2.566,40.825 2.568,40.824C2.58,40.816 2.572,40.821 2.585,40.812C2.642,40.775 2.572,40.821 2.635,40.78C2.645,40.774 2.657,40.766 2.668,40.759C2.671,40.757 2.673,40.755 2.676,40.753C2.679,40.751 2.682,40.749 2.685,40.747C2.689,40.745 2.692,40.743 2.695,40.741C2.698,40.739 2.701,40.737 2.704,40.735C2.713,40.729 2.736,40.714 2.746,40.708C2.779,40.686 2.757,40.701 2.792,40.678C2.823,40.658 2.809,40.667 2.842,40.646C2.85,40.641 2.887,40.616 2.897,40.61C3.027,40.525 3.004,40.541 3.156,40.441C3.207,40.409 3.409,40.278 3.479,40.232C3.627,40.136 3.692,40.093 3.859,39.986C3.94,39.933 3.983,39.905 4.068,39.849C4.077,39.844 4.086,39.838 4.096,39.832C4.105,39.826 4.114,39.82 4.123,39.814C4.164,39.787 4.136,39.805 4.178,39.778C4.19,39.771 4.222,39.75 4.234,39.742C4.258,39.726 4.266,39.721 4.291,39.705C4.345,39.67 4.293,39.704 4.348,39.668C4.381,39.647 4.373,39.651 4.406,39.63C4.43,39.615 4.441,39.607 4.465,39.592C4.475,39.586 4.485,39.579 4.495,39.573C4.505,39.566 4.515,39.56 4.525,39.553C4.542,39.542 4.567,39.526 4.585,39.514C4.603,39.503 4.628,39.486 4.646,39.475C4.684,39.45 4.669,39.46 4.707,39.435C4.718,39.428 4.728,39.421 4.738,39.414C4.749,39.408 4.759,39.401 4.77,39.394C6.083,38.541 7.906,37.358 9.665,36.216C11.49,35.031 13.179,33.935 14.56,33.038C15.231,32.603 15.78,32.246 16.173,31.991C16.364,31.867 16.523,31.763 16.625,31.698C16.678,31.663 16.716,31.638 16.744,31.62C16.758,31.611 16.767,31.605 16.774,31.6C16.778,31.598 16.78,31.597 16.782,31.595C16.784,31.594 16.783,31.595 16.784,31.594C16.784,31.594 16.784,31.594 16.784,31.594C16.784,31.594 15.763,31.634 15.24,30.755L17.24,30.755ZM3,40L3,3.5L1,3.5L1,40L3,40ZM26.5,1C27.881,1 29,2.119 29,3.5L31,3.5C31,1.015 28.985,-1 26.5,-1L26.5,1ZM5.5,-1C3.015,-1 1,1.015 1,3.5L3,3.5C3,2.119 4.119,1 5.5,1L5.5,-1Z" fill="#FC8B56"/>
</svg>
