<svg width="30" height="42" viewBox="0 0 30 42" fill="none" xmlns="http://www.w3.org/2000/svg" xmlns:xlink="http://www.w3.org/1999/xlink">
<path d="M28,40L27.442,40.83C27.749,41.036 28.144,41.056 28.47,40.883C28.796,40.709 29,40.369 29,40L28,40ZM0,40L-1,40C-1,40.367 -0.799,40.704 -0.477,40.879C-0.155,41.054 0.237,41.038 0.545,40.839L0,40ZM3.5,1L24.5,1L24.5,-1L3.5,-1L3.5,1ZM27,3.5L27,40L29,40L29,3.5L27,3.5ZM28,40C28.558,39.17 28.558,39.17 28.558,39.17C28.557,39.17 28.557,39.17 28.557,39.17C28.557,39.169 28.557,39.169 28.556,39.169C28.556,39.169 28.556,39.169 28.555,39.168C28.555,39.168 28.554,39.168 28.554,39.167C28.553,39.167 28.553,39.167 28.552,39.166C28.551,39.166 28.551,39.165 28.55,39.165C28.549,39.164 28.549,39.164 28.548,39.163C28.535,39.155 28.537,39.156 28.518,39.143C28.44,39.091 28.506,39.135 28.403,39.066C28.337,39.022 28.391,39.058 28.319,39.009C28.293,38.992 28.297,38.995 28.27,38.977C28.265,38.973 28.25,38.963 28.244,38.959C28.24,38.957 28.236,38.954 28.231,38.951C28.227,38.948 28.222,38.944 28.218,38.941C28.195,38.926 28.185,38.919 28.161,38.903C28.132,38.884 28.13,38.882 28.1,38.862C28.083,38.851 28.085,38.852 28.068,38.841C28.051,38.83 28.052,38.83 28.035,38.819C28.022,38.81 28.014,38.805 28.001,38.796C28,38.795 27.968,38.774 27.966,38.773C27.88,38.715 27.761,38.634 27.655,38.563C27.533,38.481 27.428,38.411 27.288,38.317C27.2,38.258 27.177,38.242 27.085,38.181C27.064,38.166 27.054,38.16 27.033,38.145C26.991,38.117 27.021,38.137 26.979,38.109C26.973,38.105 26.931,38.077 26.925,38.073C26.891,38.05 26.905,38.059 26.87,38.036C26.815,37.999 26.871,38.037 26.815,37.999C26.806,37.993 26.796,37.987 26.787,37.98C26.778,37.974 26.768,37.968 26.759,37.961C26.719,37.935 26.742,37.95 26.702,37.923C26.692,37.917 26.683,37.91 26.673,37.904C26.664,37.897 26.654,37.891 26.644,37.884C26.638,37.88 26.593,37.85 26.586,37.845C26.576,37.838 26.538,37.813 26.527,37.806C26.485,37.778 26.51,37.794 26.468,37.766C26.458,37.759 26.448,37.752 26.438,37.746C26.428,37.739 26.418,37.732 26.408,37.725C25.14,36.874 23.375,35.688 21.678,34.547C19.937,33.378 18.258,32.25 16.948,31.369C16.302,30.936 15.766,30.575 15.389,30.322C15.203,30.197 15.051,30.095 14.952,30.029C14.903,29.996 14.862,29.968 14.837,29.951C14.822,29.941 14.817,29.938 14.808,29.932C14.804,29.929 14.802,29.928 14.8,29.927C14.798,29.926 14.8,29.926 14.798,29.925C14.798,29.925 14.798,29.925 14.798,29.925C14.798,29.925 15.122,30.285 15.24,30.755L13.24,30.755C13.357,31.225 13.682,31.585 13.682,31.585C13.683,31.585 13.683,31.585 13.683,31.585C13.683,31.586 13.683,31.586 13.684,31.586C13.684,31.586 13.684,31.586 13.685,31.587C13.688,31.589 13.688,31.589 13.692,31.592C13.7,31.597 13.708,31.602 13.722,31.612C13.747,31.629 13.787,31.655 13.837,31.689C13.937,31.756 14.086,31.857 14.274,31.982C14.673,32.251 15.164,32.58 15.832,33.03C17.118,33.893 18.847,35.055 20.562,36.208C20.576,36.217 20.589,36.226 20.603,36.235C20.616,36.244 20.629,36.253 20.643,36.262C20.656,36.271 20.67,36.28 20.683,36.289C20.697,36.298 20.71,36.307 20.724,36.316C20.757,36.339 20.77,36.347 20.804,36.37C20.818,36.379 20.831,36.388 20.844,36.397C20.858,36.406 20.871,36.415 20.885,36.424C20.989,36.494 21.103,36.571 21.206,36.64C21.414,36.78 21.641,36.932 21.846,37.07C21.859,37.079 21.872,37.088 21.885,37.096C21.898,37.105 21.912,37.114 21.925,37.123C21.974,37.156 21.955,37.143 22.004,37.176C22.052,37.209 22.113,37.25 22.162,37.282C22.273,37.357 22.364,37.418 22.475,37.492C22.488,37.501 22.501,37.51 22.513,37.519C22.526,37.527 22.539,37.536 22.552,37.545C22.612,37.584 22.57,37.557 22.63,37.597C22.639,37.603 22.698,37.642 22.707,37.648C22.72,37.657 22.733,37.666 22.745,37.674C22.758,37.683 22.771,37.692 22.784,37.7C22.827,37.729 22.817,37.723 22.86,37.752C22.896,37.776 22.901,37.779 22.937,37.803C22.969,37.824 22.981,37.833 23.013,37.854C23.025,37.862 23.038,37.871 23.051,37.879C23.063,37.888 23.076,37.896 23.089,37.905C23.189,37.972 23.29,38.04 23.388,38.106C23.463,38.156 23.388,38.106 23.462,38.156C23.486,38.172 23.512,38.19 23.536,38.206C23.578,38.233 23.568,38.227 23.609,38.255C23.622,38.264 23.67,38.295 23.682,38.304C23.93,38.47 24.013,38.526 24.251,38.686C24.262,38.694 24.274,38.701 24.285,38.709C24.297,38.717 24.308,38.725 24.32,38.732C24.331,38.74 24.343,38.748 24.354,38.755C24.366,38.763 24.377,38.771 24.389,38.778C24.447,38.818 24.398,38.785 24.457,38.824C24.468,38.832 24.479,38.839 24.49,38.847C24.502,38.854 24.513,38.862 24.524,38.869C24.532,38.875 24.583,38.909 24.591,38.914C24.642,38.949 24.607,38.925 24.658,38.959C24.666,38.964 24.716,38.998 24.724,39.004C24.765,39.031 24.748,39.02 24.789,39.048C24.874,39.104 24.77,39.035 24.854,39.091C24.904,39.124 24.869,39.101 24.919,39.134C24.926,39.139 24.975,39.172 24.982,39.177C24.993,39.184 25.003,39.191 25.014,39.199C25.025,39.206 25.035,39.213 25.045,39.22C25.087,39.247 25.13,39.276 25.17,39.303C25.186,39.314 25.215,39.334 25.232,39.345C25.315,39.401 25.209,39.33 25.292,39.386C25.335,39.414 25.31,39.397 25.352,39.426C25.363,39.433 25.401,39.459 25.412,39.466C25.454,39.494 25.429,39.477 25.471,39.505C25.516,39.536 25.484,39.514 25.529,39.545C25.539,39.551 25.548,39.558 25.558,39.564C25.567,39.57 25.577,39.577 25.587,39.583C25.597,39.59 25.633,39.614 25.643,39.621C25.7,39.66 25.643,39.621 25.7,39.659C25.709,39.665 25.718,39.672 25.727,39.678C25.737,39.684 25.746,39.69 25.755,39.696C25.88,39.781 26.063,39.903 26.172,39.977C26.295,40.059 26.435,40.153 26.539,40.223C26.661,40.305 26.749,40.364 26.851,40.433C26.88,40.453 26.857,40.437 26.886,40.456C26.903,40.468 26.903,40.468 26.92,40.479C26.933,40.488 26.94,40.493 26.953,40.501C26.964,40.509 26.973,40.515 26.984,40.522C27.01,40.54 27.021,40.547 27.045,40.563C27.126,40.618 27.023,40.548 27.102,40.602C27.124,40.616 27.134,40.623 27.155,40.637C27.172,40.649 27.188,40.659 27.203,40.67C27.215,40.678 27.237,40.692 27.248,40.699C27.251,40.702 27.255,40.704 27.258,40.706C27.262,40.709 27.265,40.711 27.268,40.713C27.282,40.722 27.275,40.717 27.288,40.726C27.314,40.744 27.299,40.734 27.323,40.75C27.327,40.753 27.352,40.77 27.354,40.771C27.37,40.781 27.367,40.78 27.381,40.789C27.385,40.791 27.401,40.802 27.403,40.804C27.419,40.814 27.423,40.817 27.432,40.823C27.433,40.824 27.434,40.824 27.435,40.825C27.435,40.825 27.436,40.826 27.437,40.826C27.437,40.827 27.438,40.827 27.438,40.827C27.439,40.828 27.439,40.828 27.44,40.828C27.44,40.829 27.441,40.829 27.441,40.829C27.441,40.829 27.441,40.829 27.442,40.83C27.442,40.83 27.442,40.83 27.442,40.83C27.442,40.83 27.442,40.83 28,40ZM15.24,30.755C14.717,29.876 13.695,29.916 13.695,29.916C13.695,29.916 13.695,29.917 13.695,29.917C13.695,29.917 13.694,29.917 13.694,29.917C13.694,29.917 13.693,29.918 13.693,29.918C13.69,29.92 13.69,29.92 13.685,29.923C13.675,29.929 13.671,29.932 13.655,29.943C13.629,29.96 13.587,29.987 13.535,30.02C13.431,30.088 13.278,30.187 13.084,30.314C12.704,30.56 12.129,30.934 11.47,31.361C11.44,31.38 11.438,31.382 11.408,31.402C11.377,31.421 11.374,31.423 11.344,31.443C11.318,31.46 11.306,31.467 11.28,31.485C11.254,31.501 11.241,31.51 11.215,31.527C11.164,31.56 11.135,31.578 11.084,31.612C10.998,31.668 11.036,31.643 10.95,31.699C10.817,31.785 10.812,31.789 10.676,31.877C10.523,31.976 10.548,31.96 10.393,32.06C10.293,32.126 10.205,32.183 10.102,32.249C10.09,32.257 10.078,32.265 10.065,32.273C10.053,32.281 10.041,32.289 10.028,32.297C10.016,32.305 10.004,32.313 9.991,32.321C9.979,32.329 9.966,32.337 9.954,32.345C9.942,32.353 9.929,32.361 9.917,32.369C9.904,32.378 9.892,32.386 9.879,32.394C9.867,32.402 9.854,32.41 9.842,32.418C9.829,32.426 9.817,32.434 9.804,32.443C9.586,32.584 9.416,32.695 9.19,32.841C8.737,33.136 8.377,33.369 7.904,33.677C7.89,33.685 7.876,33.694 7.862,33.703C7.849,33.712 7.835,33.721 7.821,33.73C7.784,33.754 7.776,33.759 7.739,33.783C7.708,33.804 7.605,33.87 7.574,33.891C7.504,33.936 7.561,33.899 7.491,33.944C7.487,33.947 7.412,33.996 7.408,33.998C7.338,34.044 7.395,34.007 7.325,34.052C7.318,34.056 7.249,34.102 7.242,34.106C7.175,34.15 7.226,34.116 7.159,34.16C7.152,34.164 7.082,34.21 7.076,34.214C7.009,34.258 7.06,34.224 6.992,34.268C6.979,34.277 6.965,34.286 6.951,34.295C6.937,34.304 6.923,34.313 6.909,34.322C6.895,34.331 6.881,34.34 6.867,34.349C6.854,34.358 6.84,34.367 6.826,34.376C6.812,34.385 6.798,34.394 6.784,34.403C6.77,34.412 6.756,34.421 6.742,34.43C6.706,34.454 6.612,34.515 6.575,34.539C6.459,34.614 6.358,34.68 6.242,34.755C6.131,34.828 6.02,34.9 5.909,34.972C5.895,34.981 5.881,34.99 5.867,34.999C5.853,35.008 5.84,35.017 5.826,35.025C5.822,35.028 5.747,35.077 5.743,35.079C5.673,35.125 5.73,35.088 5.66,35.133C5.646,35.142 5.632,35.151 5.619,35.16C5.605,35.169 5.591,35.178 5.577,35.187C5.538,35.212 5.533,35.215 5.495,35.241C5.494,35.241 5.413,35.294 5.412,35.294C5.339,35.341 5.402,35.301 5.33,35.348C5.292,35.372 5.285,35.377 5.247,35.401C4.868,35.647 4.32,36.003 3.961,36.236C3.95,36.243 3.894,36.28 3.883,36.287C3.863,36.3 3.825,36.324 3.805,36.337C3.756,36.369 3.777,36.356 3.728,36.387C3.715,36.396 3.702,36.404 3.689,36.412C3.677,36.421 3.664,36.429 3.651,36.437C3.548,36.504 3.447,36.57 3.347,36.635C3.246,36.7 3.147,36.765 3.049,36.828C3.037,36.836 3.024,36.844 3.012,36.852C3,36.86 2.988,36.868 2.975,36.876C2.942,36.898 2.936,36.901 2.903,36.923C2.89,36.931 2.878,36.939 2.866,36.947C2.854,36.955 2.842,36.963 2.83,36.97C2.818,36.978 2.806,36.986 2.794,36.994C2.782,37.002 2.77,37.009 2.758,37.017C2.746,37.025 2.734,37.033 2.722,37.04C2.711,37.048 2.699,37.056 2.687,37.063C2.675,37.071 2.663,37.079 2.651,37.087C2.639,37.094 2.628,37.102 2.616,37.109C2.579,37.133 2.581,37.132 2.545,37.155C2.534,37.163 2.522,37.17 2.51,37.178C2.499,37.186 2.487,37.193 2.475,37.201C2.464,37.208 2.452,37.216 2.441,37.223C2.429,37.231 2.418,37.238 2.406,37.246C2.357,37.277 2.386,37.259 2.337,37.29C2.327,37.297 2.278,37.329 2.269,37.335C2.257,37.343 2.213,37.371 2.201,37.379C2.022,37.495 1.846,37.609 1.68,37.717C0.958,38.186 0.511,38.476 0.067,38.764C0.059,38.77 0.04,38.782 0.031,38.787C0.014,38.799 0.014,38.799 -0.004,38.81C-0.041,38.834 -0.001,38.809 -0.038,38.832C-0.039,38.833 -0.07,38.853 -0.071,38.854C-0.116,38.883 -0.09,38.866 -0.134,38.895C-0.203,38.94 -0.124,38.888 -0.193,38.933C-0.197,38.936 -0.202,38.939 -0.207,38.942C-0.211,38.945 -0.216,38.948 -0.22,38.951C-0.225,38.954 -0.229,38.957 -0.234,38.96C-0.238,38.962 -0.243,38.965 -0.247,38.968C-0.26,38.976 -0.286,38.994 -0.297,39.001C-0.305,39.006 -0.337,39.027 -0.343,39.031C-0.371,39.049 -0.358,39.04 -0.385,39.057C-0.398,39.066 -0.409,39.074 -0.421,39.081C-0.44,39.094 -0.436,39.091 -0.454,39.102C-0.475,39.116 -0.461,39.107 -0.481,39.12C-0.487,39.124 -0.499,39.132 -0.504,39.135C-0.533,39.154 -0.511,39.14 -0.534,39.155C-0.535,39.155 -0.536,39.156 -0.537,39.156C-0.537,39.157 -0.538,39.157 -0.539,39.157C-0.539,39.158 -0.54,39.158 -0.54,39.159C-0.541,39.159 -0.542,39.159 -0.542,39.16C-0.542,39.16 -0.543,39.16 -0.543,39.16C-0.543,39.161 -0.544,39.161 -0.544,39.161C-0.544,39.161 -0.544,39.161 -0.544,39.161C-0.544,39.161 -0.545,39.161 0,40C0.545,40.839 0.545,40.839 0.545,40.839C0.545,40.839 0.545,40.838 0.545,40.838C0.545,40.838 0.546,40.838 0.546,40.838C0.546,40.838 0.547,40.837 0.547,40.837C0.548,40.837 0.548,40.836 0.549,40.836C0.549,40.836 0.55,40.835 0.55,40.835C0.551,40.835 0.552,40.834 0.552,40.834C0.553,40.833 0.554,40.833 0.555,40.832C0.556,40.831 0.557,40.831 0.558,40.83C0.559,40.83 0.56,40.829 0.561,40.828C0.562,40.828 0.563,40.827 0.564,40.826C0.565,40.825 0.566,40.825 0.568,40.824C0.58,40.816 0.572,40.821 0.585,40.812C0.642,40.775 0.572,40.821 0.635,40.78C0.645,40.774 0.657,40.766 0.668,40.759C0.671,40.757 0.673,40.755 0.676,40.753C0.679,40.751 0.682,40.749 0.685,40.747C0.689,40.745 0.692,40.743 0.695,40.741C0.698,40.739 0.701,40.737 0.704,40.735C0.713,40.729 0.736,40.714 0.746,40.708C0.779,40.686 0.757,40.701 0.792,40.678C0.823,40.658 0.809,40.667 0.842,40.646C0.85,40.641 0.887,40.616 0.897,40.61C1.027,40.525 1.004,40.541 1.156,40.441C1.207,40.409 1.409,40.278 1.479,40.232C1.627,40.136 1.692,40.093 1.859,39.986C1.94,39.933 1.983,39.905 2.068,39.849C2.077,39.844 2.087,39.838 2.096,39.832C2.105,39.826 2.114,39.82 2.123,39.814C2.164,39.787 2.136,39.805 2.178,39.778C2.19,39.771 2.222,39.75 2.234,39.742C2.258,39.726 2.266,39.721 2.291,39.705C2.345,39.67 2.293,39.704 2.348,39.668C2.381,39.647 2.373,39.651 2.406,39.63C2.43,39.615 2.441,39.607 2.465,39.592C2.475,39.586 2.485,39.579 2.495,39.573C2.505,39.566 2.515,39.56 2.525,39.553C2.542,39.542 2.567,39.526 2.585,39.514C2.603,39.503 2.628,39.486 2.646,39.475C2.684,39.45 2.669,39.46 2.707,39.435C2.718,39.428 2.728,39.421 2.738,39.414C2.749,39.408 2.759,39.401 2.77,39.394C4.083,38.541 5.906,37.358 7.665,36.216C9.49,35.031 11.179,33.935 12.559,33.038C13.231,32.603 13.78,32.246 14.173,31.991C14.364,31.867 14.523,31.763 14.625,31.698C14.678,31.663 14.716,31.638 14.744,31.62C14.758,31.611 14.767,31.605 14.774,31.6C14.778,31.598 14.78,31.597 14.782,31.595C14.784,31.594 14.783,31.595 14.784,31.594C14.784,31.594 14.784,31.594 14.784,31.594C14.784,31.594 13.763,31.634 13.24,30.755L15.24,30.755ZM1,40L1,3.5L-1,3.5L-1,40L1,40ZM24.5,1C25.881,1 27,2.119 27,3.5L29,3.5C29,1.015 26.985,-1 24.5,-1L24.5,1ZM3.5,-1C1.015,-1 -1,1.015 -1,3.5L1,3.5C1,2.119 2.119,1 3.5,1L3.5,-1Z" fill="#FC8B56"/>
</svg>
