<svg width="62" height="66" viewBox="0 0 62 66" fill="none" xmlns="http://www.w3.org/2000/svg" xmlns:xlink="http://www.w3.org/1999/xlink">
<g opacity="0.4" style="isolation:isolate">
<path d="M18.193,61.387C17.527,61.393 16.885,61.133 16.412,60.664C15.938,60.195 15.672,59.556 15.672,58.889L15.672,39.542C15.672,39.359 15.686,39.177 15.716,38.997C13.967,39.229 12.658,40.717 12.651,42.481L12.651,61.074C12.651,61.935 12.995,62.761 13.607,63.366C14.218,63.972 15.047,64.308 15.908,64.299L33.317,64.128L35.667,61.221L18.193,61.387Z" fill="#FC8E56"/>
</g>
<g opacity="0.4" style="isolation:isolate">
<path d="M47.431,33.43L11.844,33.43C11.894,25.407 15.413,18.27 20.869,13.667C12.964,17.712 7.488,26.353 7.426,36.375L54.549,36.375C54.542,35.391 54.483,34.408 54.371,33.43L47.431,33.43Z" fill="#FEC368"/>
</g>
<path d="M54.55,37.873C53.819,37.873 53.225,37.28 53.225,36.548C53.225,23.312 43.249,12.543 30.987,12.543C18.726,12.543 8.75,23.312 8.75,36.548C8.75,37.28 8.157,37.873 7.424,37.873C6.693,37.873 6.099,37.28 6.099,36.548C6.099,21.85 17.264,9.892 30.987,9.892C44.711,9.892 55.876,21.85 55.876,36.548C55.876,37.28 55.283,37.873 54.55,37.873Z" fill="#FEC368"/>
<path d="M35.405,12.249C34.674,12.249 34.08,11.655 34.08,10.923C34.08,9.215 32.695,7.831 30.987,7.831C29.279,7.831 27.895,9.215 27.895,10.923C27.895,11.655 27.302,12.249 26.569,12.249C25.838,12.249 25.244,11.655 25.244,10.923C25.244,7.751 27.815,5.18 30.987,5.18C34.159,5.18 36.731,7.751 36.731,10.923C36.731,11.655 36.138,12.249 35.405,12.249Z" fill="#FEC368"/>
<path d="M15.623,32.21C15.247,32.21 14.889,32.052 14.638,31.773C14.386,31.495 14.264,31.123 14.302,30.75C14.757,26.293 17.28,22.416 21.051,20.38C21.468,20.152 21.975,20.165 22.38,20.414C22.785,20.662 23.026,21.108 23.011,21.583C22.997,22.058 22.73,22.488 22.311,22.712C19.313,24.331 17.305,27.436 16.939,31.018C16.87,31.694 16.302,32.209 15.623,32.21Z" fill="#FEC368"/>
<path d="M11.325,42.481L11.325,64.331C11.325,65.063 11.918,65.656 12.651,65.656C13.382,65.656 13.976,65.063 13.976,64.331L13.976,42.481C13.99,41.264 14.981,40.285 16.197,40.285C17.415,40.285 18.405,41.264 18.419,42.481L18.419,51.237C18.419,53.454 19.529,55.099 21.544,55.868C23.746,56.693 26.225,56.22 27.968,54.642L28.113,54.513L44.935,40.863C44.969,40.835 45.002,40.806 45.033,40.774C46.354,39.469 48.277,38.98 50.061,39.497L51.141,39.809C51.169,39.814 51.191,39.835 51.197,39.863C51.206,39.885 51.199,39.911 51.18,39.926C51.158,39.95 51.136,39.975 51.116,39.999L32.287,63.295C31.827,63.864 31.915,64.698 32.484,65.159C33.054,65.619 33.888,65.53 34.349,64.961L53.151,41.699C53.663,41.131 53.912,40.374 53.837,39.613C53.762,38.852 53.371,38.159 52.759,37.701L60.588,37.701C61.321,37.701 61.914,37.107 61.914,36.375C61.914,35.644 61.321,35.05 60.588,35.05L1.386,35.05C0.655,35.05 0.061,35.644 0.061,36.375C0.061,37.107 0.655,37.701 1.386,37.701L15.416,37.701C13.066,38.078 11.334,40.101 11.325,42.481ZM16.979,37.701L29.462,37.701C29.127,37.968 28.807,38.252 28.503,38.555L21.07,45.267L21.07,42.481C21.061,40.101 19.329,38.078 16.979,37.701ZM26.42,52.473L43.216,38.844C43.669,38.403 44.175,38.018 44.721,37.7L44.347,37.7C44.207,37.75 44.059,37.776 43.91,37.776C41.153,37.771 38.5,38.831 36.504,40.735L36.476,40.761L24.935,51.117C24.388,51.593 23.561,51.543 23.077,51.003C22.592,50.464 22.632,49.635 23.165,49.144L34.693,38.8C35,38.509 35.319,38.234 35.649,37.975C35.633,37.935 35.618,37.895 35.606,37.854C33.619,38.118 31.774,39.03 30.358,40.449C30.341,40.466 30.324,40.483 30.306,40.499L21.07,48.838L21.07,51.237C21.07,52.368 21.494,53.011 22.489,53.391C23.768,53.851 25.197,53.57 26.207,52.66L26.375,52.511L26.42,52.473Z" clip-rule="evenodd" fill-rule="evenodd" fill="#FC8E56"/>
<path d="M40.56,1.62L40.56,6.48C40.56,7.212 41.153,7.805 41.885,7.805C42.618,7.805 43.211,7.212 43.211,6.48L43.211,1.62C43.211,0.888 42.618,0.295 41.885,0.295C41.153,0.295 40.56,0.888 40.56,1.62Z" fill="#FC8E56"/>
<path d="M17.291,1.325L17.291,7.805C17.291,8.537 17.885,9.131 18.617,9.131C19.349,9.131 19.942,8.537 19.942,7.805L19.942,1.325C19.942,0.594 19.349,0 18.617,0C17.885,0 17.291,0.594 17.291,1.325Z" fill="#FC8E56"/>
<path d="M9.192,6.48L9.192,14.138C9.192,14.87 9.785,15.463 10.517,15.463C11.249,15.463 11.842,14.87 11.842,14.138L11.842,6.48C11.842,5.748 11.249,5.154 10.517,5.154C9.785,5.154 9.192,5.748 9.192,6.48Z" fill="#FC8E56"/>
<path d="M48.66,5.891L48.66,13.107C48.66,13.839 49.253,14.432 49.985,14.432C50.717,14.432 51.311,13.839 51.311,13.107L51.311,5.891C51.311,5.159 50.717,4.565 49.985,4.565C49.253,4.565 48.66,5.159 48.66,5.891Z" fill="#FC8E56"/>
</svg>
