<svg width="40" height="40" viewBox="0 0 40 40" fill="none" xmlns="http://www.w3.org/2000/svg" xmlns:xlink="http://www.w3.org/1999/xlink">
<path d="M5.026,17.487C5.038,7.834 12.86,0.012 22.513,0C32.171,0 40,7.829 40,17.487C40,27.145 32.171,34.974 22.513,34.974C18.747,34.962 15.088,33.722 12.089,31.443L4.295,39.237C3.668,39.887 2.739,40.147 1.866,39.919C0.992,39.69 0.31,39.008 0.081,38.134C-0.147,37.261 0.113,36.332 0.763,35.705L8.557,27.911C6.278,24.912 5.039,21.253 5.026,17.487ZM10.023,17.487C10.023,24.385 15.615,29.978 22.513,29.978C29.408,29.97 34.996,24.382 35.004,17.487C35.004,10.589 29.412,4.996 22.513,4.996C15.615,4.996 10.023,10.589 10.023,17.487Z" clip-rule="evenodd" fill-rule="evenodd" fill="#FFFFFF"/>
</svg>
