<svg width="44" height="54" viewBox="0 0 44 54" fill="none" xmlns="http://www.w3.org/2000/svg" xmlns:xlink="http://www.w3.org/1999/xlink">
<path d="M38,0.426L16.667,0.426L0.667,16.426L0.667,48.426C0.667,51.36 3.067,53.76 6,53.76L38,53.76C40.933,53.76 43.333,51.36 43.333,48.426L43.333,5.759C43.333,2.826 40.933,0.426 38,0.426ZM38,48.426L6,48.426L6,18.639L18.88,5.759L38,5.759L38,48.426ZM14,13.759L19.333,13.759L19.333,24.426L14,24.426L14,13.759ZM22,13.759L27.333,13.759L27.333,24.426L22,24.426L22,13.759ZM30,13.759L35.333,13.759L35.333,24.426L30,24.426L30,13.759Z" stroke="#FFFFFF" stroke-width="1.5" stroke-miterlimit="3.999327"/>
</svg>
