<svg width="44" height="42" viewBox="0 0 44 42" fill="none" xmlns="http://www.w3.org/2000/svg" xmlns:xlink="http://www.w3.org/1999/xlink">
<path d="M22,0.233C24.829,0.233 27.542,1.323 29.542,3.264C31.543,5.205 32.667,7.838 32.667,10.583C32.667,13.328 31.543,15.961 29.542,17.902C27.542,19.843 24.829,20.934 22,20.934C19.171,20.934 16.458,19.843 14.458,17.902C12.457,15.961 11.333,13.328 11.333,10.583C11.333,7.838 12.457,5.205 14.458,3.264C16.458,1.323 19.171,0.233 22,0.233L22,0.233ZM22,26.109C33.787,26.109 43.333,30.741 43.333,36.46L43.333,41.635L0.667,41.635L0.667,36.46C0.667,30.741 10.213,26.109 22,26.109Z" stroke="#FFFFFF" stroke-width="2" stroke-miterlimit="3.999327"/>
</svg>
