<svg width="62" height="70" viewBox="0 0 62 70" fill="none" xmlns="http://www.w3.org/2000/svg" xmlns:xlink="http://www.w3.org/1999/xlink">
<g opacity="0.4" style="isolation:isolate">
<path d="M8.489,43.947C8.096,43.554 7.671,43.195 7.217,42.874C6.916,41.364 6.736,39.832 6.68,38.293L2.183,38.293C2.238,39.832 2.418,41.364 2.72,42.874C3.173,43.195 3.599,43.554 3.992,43.947C4.823,44.739 5.424,45.311 6.741,45.311C7.782,45.311 8.375,44.953 8.989,44.411C8.827,44.268 8.663,44.113 8.489,43.947L8.489,43.947Z" fill="#FC8E56"/>
</g>
<g opacity="0.4" style="isolation:isolate">
<path d="M11.238,47.41C11.343,47.41 11.442,47.406 11.542,47.401C12.123,47.144 12.747,47 13.381,46.975C14.261,46.581 14.888,45.987 15.434,45.467C15.608,45.302 15.771,45.146 15.934,45.003C15.319,44.462 14.726,44.103 13.685,44.103C12.369,44.103 11.768,44.675 10.936,45.467C10.413,45.966 9.814,46.534 8.989,46.927C9.692,47.257 10.461,47.422 11.238,47.41Z" fill="#FC8E56"/>
</g>
<g opacity="0.4" style="isolation:isolate">
<path d="M8.426,47.152C7.882,47.328 7.313,47.415 6.741,47.41C5.64,47.432 4.563,47.092 3.675,46.442C4.065,47.594 4.529,48.719 5.063,49.812C5.563,50.132 6.148,50.292 6.741,50.273C7.925,50.273 8.53,49.809 9.245,49.139C8.948,48.489 8.675,47.827 8.426,47.152L8.426,47.152Z" fill="#FC8E56"/>
</g>
<g opacity="0.4" style="isolation:isolate">
<path d="M10.975,52.365C11.062,52.369 11.149,52.371 11.238,52.371C13.394,52.371 14.525,51.293 15.434,50.428C15.608,50.263 15.771,50.107 15.934,49.964C15.319,49.422 14.726,49.064 13.685,49.064C12.369,49.064 11.768,49.636 10.936,50.428C10.027,51.293 8.896,52.371 6.74,52.371C6.652,52.371 6.564,52.369 6.478,52.365C11.712,60.815 20.943,65.958 30.882,65.962C31.645,65.962 32.4,65.932 33.148,65.872C24.029,65.154 15.796,60.139 10.975,52.365L10.975,52.365Z" fill="#FC8E56"/>
</g>
<path d="M40.993,34.38C38.353,34.369 35.918,32.952 34.604,30.661C33.373,28.524 33.358,26.011 34.564,23.94C34.581,23.911 34.599,23.883 34.619,23.856L40.134,16.18C40.332,15.906 40.649,15.743 40.987,15.743C41.324,15.743 41.642,15.906 41.839,16.18L47.365,23.869C47.384,23.896 47.401,23.923 47.418,23.951C48.625,26.007 48.616,28.51 47.394,30.645C46.083,32.944 43.645,34.368 40.998,34.38L40.993,34.38ZM40.987,18.591L36.354,25.037C35.543,26.463 35.567,28.128 36.423,29.614C37.362,31.255 39.103,32.271 40.993,32.281L40.997,32.281C42.891,32.27 44.636,31.249 45.573,29.602C46.421,28.12 46.44,26.464 45.631,25.052L40.987,18.591Z" clip-rule="evenodd" fill-rule="evenodd" fill="#FEC368"/>
<path d="M40.954,31.508C42.119,31.511 43.237,31.051 44.062,30.228C44.887,29.405 45.35,28.288 45.351,27.123C45.351,26.544 44.881,26.074 44.301,26.074C43.722,26.074 43.252,26.544 43.252,27.123C43.254,27.73 43.013,28.311 42.582,28.738C42.15,29.169 41.563,29.411 40.952,29.408C40.373,29.408 39.903,29.878 39.903,30.458C39.903,31.037 40.373,31.507 40.952,31.507L40.954,31.508Z" fill="#FEC368"/>
<path d="M27.136,0.437L33.768,9.663C33.786,9.69 33.804,9.717 33.821,9.745C35.23,12.147 35.219,15.071 33.791,17.568C32.255,20.261 29.398,21.929 26.298,21.944L26.292,21.944C23.198,21.931 20.346,20.271 18.806,17.587C17.368,15.088 17.35,12.151 18.758,9.732C18.775,9.703 18.793,9.674 18.813,9.647L25.432,0.437C25.629,0.163 25.946,0 26.284,0C26.622,0 26.939,0.163 27.136,0.437ZM26.296,19.845C28.645,19.832 30.808,18.566 31.969,16.525C33.027,14.677 33.05,12.61 32.034,10.847L26.284,2.847L20.548,10.829C19.531,12.608 19.559,14.687 20.625,16.54C21.79,18.574 23.949,19.833 26.292,19.845L26.296,19.845Z" clip-rule="evenodd" fill-rule="evenodd" fill="#FEC368"/>
<path d="M30.262,12.398C29.683,12.398 29.213,12.868 29.213,13.447C29.216,14.231 28.904,14.982 28.348,15.534C27.789,16.091 27.032,16.402 26.243,16.399C25.664,16.399 25.194,16.869 25.194,17.449C25.194,18.028 25.664,18.498 26.243,18.498C27.586,18.502 28.875,17.971 29.825,17.023C30.776,16.075 31.31,14.788 31.311,13.446C31.31,12.867 30.841,12.398 30.262,12.398L30.262,12.398Z" fill="#FEC368"/>
<path d="M0.065,37.244C0.065,36.664 0.535,36.194 1.114,36.194L60.651,36.194C61.231,36.194 61.7,36.664 61.7,37.243C61.705,41.417 60.856,45.547 59.208,49.38C59.182,49.47 59.145,49.556 59.096,49.635C54.316,60.475 43.469,68.061 30.882,68.061C18.872,68.061 8.445,61.154 3.363,51.104C3.306,51.022 3.262,50.932 3.23,50.837C1.143,46.61 0.06,41.958 0.065,37.244ZM58.938,43.385C59.305,41.71 59.52,40.006 59.582,38.293L2.183,38.293C2.239,39.832 2.418,41.364 2.72,42.874C3.173,43.195 3.599,43.554 3.992,43.947C4.824,44.739 5.424,45.311 6.741,45.311C8.057,45.311 8.658,44.739 9.489,43.947L9.489,43.947C10.398,43.081 11.529,42.004 13.685,42.004C15.841,42.004 16.972,43.081 17.881,43.947L17.882,43.948C18.713,44.74 19.313,45.311 20.629,45.311C21.945,45.311 22.546,44.739 23.377,43.947C24.286,43.081 25.417,42.004 27.574,42.004C29.729,42.004 30.86,43.081 31.769,43.947L31.77,43.947L31.77,43.947C32.601,44.739 33.202,45.311 34.518,45.311C35.835,45.311 36.435,44.739 37.267,43.947C38.176,43.081 39.307,42.004 41.463,42.004C43.619,42.004 44.75,43.081 45.659,43.947L45.66,43.948C46.491,44.739 47.091,45.311 48.408,45.311C49.725,45.311 50.326,44.739 51.157,43.947L51.158,43.947C52.067,43.081 53.198,42.004 55.354,42.004C57.056,42.004 58.119,42.676 58.938,43.385ZM57.708,47.497L57.708,47.497C57.936,46.902 58.145,46.298 58.334,45.685L58.333,45.685C58.255,45.612 58.178,45.539 58.103,45.467C57.271,44.675 56.67,44.103 55.354,44.103C54.037,44.103 53.436,44.675 52.605,45.467C51.696,46.333 50.564,47.411 48.408,47.411C46.252,47.411 45.121,46.333 44.212,45.468L44.212,45.467L44.211,45.467C43.38,44.675 42.78,44.103 41.463,44.103C40.147,44.103 39.546,44.675 38.715,45.467L38.714,45.467L38.714,45.467C37.805,46.333 36.674,47.411 34.518,47.411C32.362,47.411 31.231,46.333 30.322,45.467L30.322,45.467C29.491,44.675 28.89,44.103 27.574,44.103C26.257,44.103 25.656,44.675 24.825,45.467L24.825,45.467C23.916,46.333 22.784,47.411 20.629,47.411C18.473,47.411 17.342,46.333 16.433,45.467L16.433,45.467L16.433,45.467C15.601,44.675 15.001,44.103 13.685,44.103C12.369,44.103 11.768,44.675 10.937,45.467C10.028,46.333 8.897,47.41 6.741,47.41C5.64,47.432 4.563,47.092 3.675,46.442C4.066,47.594 4.529,48.719 5.063,49.812C5.563,50.132 6.148,50.292 6.741,50.273C8.057,50.273 8.658,49.701 9.489,48.909L9.489,48.909C10.398,48.043 11.529,46.965 13.685,46.965C15.841,46.965 16.972,48.043 17.881,48.909L17.881,48.909L17.882,48.909C18.713,49.701 19.313,50.273 20.629,50.273C21.945,50.273 22.546,49.701 23.377,48.909L23.377,48.909C24.286,48.043 25.418,46.965 27.574,46.965C29.73,46.965 30.861,48.042 31.77,48.908L31.77,48.909L31.771,48.909C32.602,49.701 33.203,50.273 34.519,50.273C35.835,50.273 36.436,49.7 37.267,48.909L37.267,48.909L37.267,48.909C38.176,48.043 39.308,46.965 41.464,46.965C43.62,46.965 44.751,48.043 45.66,48.908L45.66,48.909L45.661,48.909C46.492,49.701 47.092,50.273 48.409,50.273C49.725,50.273 50.326,49.701 51.158,48.909L51.158,48.909L51.159,48.908C52.067,48.042 53.199,46.965 55.354,46.965C56.17,46.953 56.977,47.135 57.708,47.497L57.708,47.497L57.708,47.497ZM6.478,52.365C11.712,60.815 20.943,65.958 30.882,65.962C42.361,65.962 52.287,59.192 56.881,49.435C56.414,49.177 55.887,49.049 55.354,49.064C54.037,49.064 53.437,49.636 52.605,50.427L52.605,50.428C51.696,51.294 50.564,52.371 48.408,52.371C46.252,52.371 45.121,51.294 44.212,50.428L44.212,50.428L44.211,50.427C43.38,49.636 42.779,49.064 41.463,49.064C40.147,49.064 39.546,49.636 38.714,50.428L38.714,50.428C37.805,51.294 36.674,52.371 34.518,52.371C32.362,52.371 31.231,51.294 30.322,50.428L30.322,50.428L30.322,50.427C29.49,49.636 28.89,49.064 27.574,49.064C26.257,49.064 25.657,49.636 24.826,50.427L24.825,50.428C23.916,51.293 22.784,52.371 20.629,52.371C18.473,52.371 17.342,51.294 16.433,50.428L16.433,50.428L16.432,50.427C15.601,49.635 15.001,49.064 13.685,49.064C12.369,49.064 11.768,49.636 10.937,50.427L10.937,50.428L10.936,50.428C10.027,51.294 8.896,52.371 6.741,52.371C6.652,52.371 6.564,52.369 6.478,52.365Z" clip-rule="evenodd" fill-rule="evenodd" fill="#FC8E56"/>
</svg>
